<?xml version="1.0" standalone="no"?>
<!DOCTYPE svg PUBLIC "-//W3C//DTD SVG 20010904//EN"
 "http://www.w3.org/TR/2001/REC-SVG-20010904/DTD/svg10.dtd">
<svg version="1.0" xmlns="http://www.w3.org/2000/svg"
 width="300.000000pt" height="300.000000pt" viewBox="0 0 300.000000 300.000000"
 preserveAspectRatio="xMidYMid meet">
<metadata>
Created by potrace 1.10, written by Peter Selinger 2001-2011
</metadata>
<g transform="translate(0.000000,300.000000) scale(0.100000,-0.100000)"
fill="#000000" stroke="none">
<path d="M1555 2349 c16 -8 15 -8 -8 -4 -34 7 -95 -8 -164 -41 -49 -23 -52
-26 -49 -59 1 -18 -2 -31 -7 -28 -5 3 -6 15 -3 26 13 49 -47 -35 -95 -133 -23
-48 -29 -123 -17 -220 4 -30 9 -91 12 -135 l5 -80 -11 78 c-6 42 -15 77 -20
77 -5 0 -8 -36 -6 -80 2 -44 4 -76 6 -70 2 6 10 4 18 -4 19 -19 18 -30 -2 -22
-14 5 -15 4 -4 -9 7 -8 16 -15 20 -15 5 0 8 82 7 183 -2 166 0 188 21 248 26
76 83 143 114 133 10 -3 18 -1 18 4 0 5 -9 12 -20 15 -11 3 -20 11 -20 19 0 9
3 9 8 2 12 -18 115 -44 215 -53 117 -11 190 -43 195 -84 2 -15 8 -27 13 -27 6
0 7 -5 3 -12 -4 -7 -3 -8 4 -4 13 8 57 -12 48 -21 -3 -4 0 -13 7 -21 10 -13 9
-14 -12 -3 -16 9 -20 15 -12 21 9 5 8 9 -4 13 -11 5 -14 3 -9 -5 5 -8 2 -9
-10 -5 -15 6 -16 2 -12 -26 9 -53 32 -108 41 -100 5 5 3 0 -4 -10 -10 -13 -11
-21 -3 -29 8 -8 7 -15 -4 -25 -8 -8 -14 -20 -14 -26 0 -7 4 -6 10 3 6 9 10 10
10 3 0 -6 -4 -15 -10 -18 -6 -3 -10 -49 -10 -103 0 -200 -57 -315 -187 -378
-57 -28 -154 -35 -195 -13 -23 12 -23 12 -4 -10 16 -18 30 -21 90 -21 49 0 85
7 115 20 24 11 51 18 60 15 24 -7 44 -45 52 -95 l6 -45 2 38 c1 43 -20 92 -48
106 -16 9 -14 14 23 55 l41 44 13 -44 c8 -29 18 -44 29 -44 14 0 15 2 1 18
-23 26 -29 100 -12 134 8 16 18 57 21 93 5 59 8 64 31 67 14 2 27 10 28 18 2
8 8 36 14 62 13 54 10 110 -6 115 -6 2 -14 -3 -18 -12 -3 -9 -2 -13 4 -10 12
7 14 -54 3 -82 -6 -14 -9 -11 -14 17 -5 30 -7 27 -8 -21 0 -31 4 -60 11 -67 9
-9 8 -12 -4 -12 -9 0 -20 9 -23 21 -9 28 4 136 23 182 12 31 13 63 8 170 -5
85 -12 137 -21 147 -7 8 -23 35 -35 60 -31 63 -49 80 -82 80 -16 0 -55 11 -88
25 -57 24 -122 36 -75 14z m35 -49 l-35 -7 42 -2 c29 -1 51 -9 73 -27 37 -31
33 -41 -7 -21 -31 17 -105 9 -176 -18 -52 -21 -67 -18 -37 5 l25 20 -35 -10
c-19 -6 -41 -10 -48 -10 -26 0 -6 31 37 57 24 14 41 21 37 15 -5 -8 -2 -10 8
-6 9 3 14 9 12 13 -2 3 28 4 67 2 60 -4 66 -6 37 -11z m129 -44 c15 -8 36 -26
45 -40 18 -28 15 -31 -13 -17 -13 7 -18 6 -18 -4 0 -8 4 -12 8 -9 12 7 49 -19
49 -33 0 -17 -10 -16 -34 2 -10 8 -38 17 -62 21 -24 3 -42 10 -39 14 3 4 -7 8
-23 7 -15 -1 -58 0 -97 2 -60 2 -67 4 -45 13 46 20 151 27 191 13 48 -17 57
-7 22 22 -32 26 -25 30 16 9z m95 -150 c11 -18 13 -27 4 -32 -6 -4 -8 -3 -4 4
3 6 -3 13 -14 17 -11 3 -20 13 -20 21 0 22 16 17 34 -10z m9 -106 c8 -11 16
-18 18 -16 2 3 5 -14 5 -37 1 -23 -1 -36 -3 -29 -3 6 -9 10 -14 6 -5 -3 -10 0
-10 5 -1 6 -3 16 -4 21 -1 6 -3 12 -4 15 0 3 -1 8 -2 13 -1 4 -5 15 -10 25
-14 24 6 22 24 -3z"/>
<path d="M1133 2056 c-152 -163 -233 -395 -233 -665 0 -176 30 -321 96 -464
32 -72 41 -74 12 -4 -75 186 -110 408 -90 585 26 231 105 415 243 566 28 31
49 56 46 56 -3 0 -36 -33 -74 -74z"/>
<path d="M1149 2037 c-40 -47 -74 -97 -66 -97 2 0 16 17 30 38 14 20 37 50 52
65 15 16 25 30 23 32 -2 3 -20 -15 -39 -38z"/>
<path d="M1874 2068 c1 -8 18 -37 37 -64 65 -90 123 -215 153 -331 23 -87 31
-174 31 -320 0 -73 3 -125 7 -115 12 31 8 223 -7 331 -21 146 -81 310 -147
404 -11 15 -21 34 -22 42 -3 18 -14 30 -29 30 -7 0 -12 5 -12 12 0 6 -3 14 -7
18 -3 4 -6 0 -4 -7z"/>
<path d="M1044 1879 c-14 -28 -24 -53 -22 -55 2 -2 16 21 31 51 15 30 25 55
22 55 -3 0 -16 -23 -31 -51z"/>
<path d="M1275 1895 l-40 -36 33 16 c25 12 47 14 92 9 90 -10 73 25 -20 42
-18 3 -35 -5 -65 -31z"/>
<path d="M1593 1918 c-17 -6 -34 -17 -37 -24 -4 -10 13 -13 82 -11 48 1 98 -2
111 -7 36 -13 17 9 -29 33 -44 23 -77 25 -127 9z"/>
<path d="M1546 1848 c-14 -13 -27 -30 -28 -38 -2 -8 -14 -20 -28 -27 l-25 -11
26 -1 c28 -1 85 -62 71 -76 -4 -3 -2 -5 3 -4 6 2 27 -3 49 -10 54 -19 116 -9
143 24 13 14 23 31 23 38 0 7 -6 3 -12 -8 -18 -34 -40 -45 -90 -45 -56 0 -97
18 -127 56 -28 35 -26 56 5 93 30 36 26 40 -10 9z"/>
<path d="M1727 1851 c17 -11 34 -29 38 -41 4 -12 9 -19 12 -17 11 12 -10 48
-37 62 -42 21 -51 18 -13 -4z"/>
<path d="M1425 1835 c14 -13 25 -34 25 -47 1 -21 2 -21 11 -5 8 13 5 24 -11
47 -12 17 -28 30 -35 30 -9 0 -5 -9 10 -25z"/>
<path d="M1606 1815 c-20 -21 -5 -55 25 -55 24 0 36 27 22 48 -14 23 -29 25
-47 7z"/>
<path d="M1351 1801 c-13 -24 9 -57 33 -48 23 9 31 34 16 52 -17 20 -37 19
-49 -4z"/>
<path d="M996 1764 c-9 -26 -16 -52 -15 -58 0 -6 9 13 20 43 10 30 17 56 15
58 -2 2 -11 -17 -20 -43z"/>
<path d="M1430 1734 c-27 -49 -127 -76 -165 -44 -10 8 -15 9 -15 2 0 -31 78
-41 135 -18 30 13 74 70 62 82 -2 2 -10 -8 -17 -22z"/>
<path d="M960 1648 c-7 -25 -13 -119 -15 -223 l-3 -180 8 180 c4 99 13 197 20
218 6 22 9 41 7 43 -2 3 -10 -15 -17 -38z"/>
<path d="M1419 1617 c7 -7 39 -12 71 -12 32 0 64 5 71 12 9 9 2 9 -30 1 -28
-7 -54 -7 -82 0 -32 8 -39 8 -30 -1z"/>
<path d="M1587 1514 c-3 -3 -56 -6 -119 -6 -109 -1 -111 -1 -43 -9 38 -4 101
-4 138 1 70 8 101 20 55 20 -13 0 -27 -3 -31 -6z"/>
<path d="M1540 1469 c-14 -6 -47 -8 -73 -5 -54 6 -56 -10 -2 -20 41 -7 72 -1
100 20 23 18 12 19 -25 5z"/>
<path d="M1298 1385 c6 -11 32 -40 58 -65 l48 -45 -54 60 c-29 33 -56 62 -58
65 -3 3 0 -4 6 -15z"/>
<path d="M1829 1327 c37 -46 -97 -220 -217 -281 -64 -32 -101 -27 -143 21 -27
32 -30 41 -28 94 3 69 -2 79 -22 42 -8 -15 -31 -42 -51 -61 -21 -19 -35 -38
-32 -43 3 -5 0 -8 -7 -7 -37 9 -89 -196 -92 -366 l-2 -101 53 -29 c137 -73
306 -75 442 -6 135 69 253 209 327 390 43 105 58 173 43 199 -17 33 -84 77
-163 107 -40 15 -79 34 -88 41 -20 17 -35 17 -20 0z m41 -54 c0 -16 -13 -52
-29 -81 -16 -28 -25 -49 -19 -46 5 4 22 32 37 63 24 52 29 57 51 51 56 -15
140 -69 140 -89 0 -7 5 -9 10 -6 21 13 9 -7 -32 -53 l-42 -47 38 35 39 35 -6
-36 c-13 -87 -133 -318 -172 -333 -8 -3 -15 -10 -15 -16 0 -6 5 -8 10 -5 6 3
10 1 10 -5 0 -6 -6 -10 -12 -9 -22 4 -52 -13 -84 -48 -34 -36 -61 -45 -49 -15
31 73 44 113 35 107 -6 -3 -16 -21 -24 -39 -17 -41 -55 -68 -131 -95 -60 -21
-60 -21 -17 -17 24 2 61 16 83 30 46 31 52 19 9 -18 -38 -31 -83 -40 -151 -29
-63 10 -75 28 -22 35 65 9 151 38 175 59 l23 20 -26 -15 c-14 -9 -50 -21 -80
-27 -47 -9 -62 -8 -114 9 -33 11 -61 19 -63 17 -2 -2 18 -15 45 -30 l48 -26
-36 3 c-35 4 -35 3 -22 -23 7 -15 21 -30 31 -34 34 -13 -11 -24 -61 -14 -69
13 -89 25 -86 57 4 34 -11 102 -21 102 -5 0 -7 -8 -5 -17 2 -10 6 -47 9 -83 7
-82 -6 -61 -28 44 -11 55 -22 84 -36 93 -16 11 -18 18 -10 33 5 10 11 29 12
42 0 13 4 1 7 -27 5 -43 7 -36 14 59 7 91 13 118 35 159 14 27 36 57 48 66 12
9 24 26 27 37 3 12 5 7 4 -11 -2 -74 59 -130 136 -127 67 3 103 21 172 85 33
31 64 57 68 57 11 0 57 106 57 130 0 11 5 20 10 20 6 0 10 -12 10 -27z m-573
-585 c13 -47 11 -53 -12 -45 -10 4 -15 20 -15 47 0 52 13 51 27 -2z"/>
<path d="M1922 1123 c-26 -51 -48 -290 -29 -310 4 -3 7 5 7 18 1 85 20 271 29
288 7 12 9 21 7 21 -3 0 -9 -8 -14 -17z"/>
<path d="M1876 1089 c-13 -41 -23 -192 -17 -241 11 -92 18 -76 13 29 -2 54 1
125 7 157 10 53 8 90 -3 55z"/>
<path d="M1463 993 c25 -25 140 -24 182 1 17 9 21 14 10 11 -77 -25 -124 -29
-166 -12 -41 16 -43 16 -26 0z"/>
<path d="M1316 893 c-8 -53 -7 -91 3 -97 4 -3 8 26 9 64 0 39 -1 70 -3 70 -1
0 -5 -17 -9 -37z"/>
<path d="M1818 858 c-3 -13 -9 -32 -12 -43 -7 -19 -7 -19 5 -1 11 18 12 18 25
-5 14 -23 14 -22 8 16 -8 49 -20 64 -26 33z"/>
<path d="M1755 820 c-53 -55 -106 -90 -168 -112 l-52 -19 59 5 c33 3 63 11 67
18 5 7 9 10 9 5 0 -18 60 26 81 60 12 21 29 48 37 61 21 32 11 27 -33 -18z"/>
<path d="M1390 698 c0 -12 3 -18 7 -15 3 4 18 0 32 -9 25 -16 25 -15 -3 15
-35 37 -36 37 -36 9z"/>
<path d="M951 1220 c-1 -32 40 -185 74 -275 30 -81 64 -142 106 -189 37 -42
38 -57 2 -25 l-28 24 24 -27 c14 -16 27 -26 29 -23 3 3 11 0 19 -6 8 -7 13 -8
13 -1 0 5 -7 16 -16 23 -21 17 -85 112 -113 168 -29 56 -75 197 -94 286 -9 39
-16 59 -16 45z"/>
<path d="M2629 409 c-9 -9 -19 -39 -23 -67 -5 -41 -3 -59 14 -91 26 -53 55
-71 111 -71 36 0 52 6 75 27 16 15 32 27 35 26 4 -1 7 8 8 20 0 12 3 46 5 74
4 40 0 58 -13 75 -16 19 -28 22 -107 23 -69 1 -92 -3 -105 -16z m82 -25 c11
-32 -15 -64 -54 -64 -26 -1 -29 -2 -15 -11 12 -7 24 -6 39 1 12 7 30 10 40 7
10 -3 21 -1 24 3 3 5 17 2 32 -5 18 -10 32 -11 45 -4 43 23 9 -75 -36 -105
-14 -9 -43 -16 -65 -16 -32 0 -44 6 -65 31 -14 17 -27 36 -28 42 -6 50 -4 115
4 130 13 26 68 19 79 -9z m34 -14 c0 -27 -4 -40 -14 -40 -9 0 -11 7 -8 22 3
12 2 30 -4 40 -8 14 -6 18 8 18 14 0 18 -8 18 -40z m90 -5 c0 -34 -3 -40 -23
-43 -13 -2 -32 4 -43 14 -37 34 -16 77 36 72 28 -3 30 -6 30 -43z"/>
<path d="M2785 170 c-11 -5 -14 -9 -7 -9 6 -1 12 -8 12 -16 0 -8 3 -15 8 -16
4 0 26 -2 49 -4 38 -3 41 -2 31 15 -10 15 -16 16 -31 8 -17 -9 -19 -8 -14 6 4
9 2 16 -3 16 -6 0 -10 -10 -10 -22 0 -18 -2 -20 -9 -9 -5 8 -7 20 -4 28 6 15
5 15 -22 3z"/>
<path d="M2597 153 c-18 -5 -17 -6 3 -20 15 -11 24 -12 34 -4 9 7 16 7 24 -1
9 -9 12 -9 12 -1 0 22 -36 35 -73 26z"/>
<path d="M2687 153 c-4 -3 -7 -13 -6 -22 0 -12 3 -11 9 4 7 17 9 17 9 3 1 -11
9 -18 22 -18 11 0 17 5 14 10 -3 6 -1 10 6 10 10 0 10 3 1 12 -10 10 -15 10
-22 -2 -7 -10 -10 -11 -10 -2 0 13 -13 16 -23 5z"/>
</g>
</svg>
