<?xml version="1.0" standalone="no"?>
<!DOCTYPE svg PUBLIC "-//W3C//DTD SVG 20010904//EN"
 "http://www.w3.org/TR/2001/REC-SVG-20010904/DTD/svg10.dtd">
<svg version="1.0" xmlns="http://www.w3.org/2000/svg"
 width="300.000000pt" height="300.000000pt" viewBox="0 0 300.000000 300.000000"
 preserveAspectRatio="xMidYMid meet">
<metadata>
Created by potrace 1.10, written by Peter Selinger 2001-2011
</metadata>
<g transform="translate(0.000000,300.000000) scale(0.100000,-0.100000)"
fill="#000000" stroke="none">
<path d="M1306 2828 c-32 -4 -58 -16 -75 -32 -15 -14 -33 -26 -39 -26 -7 0
-29 -11 -50 -23 -29 -19 -43 -22 -67 -16 -23 7 -33 4 -48 -12 -11 -12 -41 -31
-67 -43 -42 -19 -47 -25 -37 -41 8 -16 4 -25 -30 -55 -57 -50 -93 -107 -93
-146 0 -24 -8 -39 -29 -56 -28 -22 -30 -28 -41 -148 -15 -160 -15 -142 -1
-235 42 -281 64 -365 95 -365 8 0 17 -14 21 -32 17 -88 28 -129 37 -134 12 -8
5 104 -18 294 -5 43 -6 43 -25 26 -13 -12 -16 -20 -8 -25 15 -9 20 -119 5
-119 -7 0 -12 8 -13 18 -1 9 -11 62 -22 117 -12 55 -21 121 -21 147 0 26 -5
59 -12 73 -9 21 -9 31 0 46 7 10 12 25 12 33 0 8 5 16 12 18 7 3 8 10 3 17 -6
10 -11 6 -21 -15 -18 -41 -17 -7 2 57 9 30 28 66 42 82 14 15 23 27 19 27 -4
0 8 19 26 43 17 24 47 65 64 90 23 32 40 47 55 47 28 0 95 32 128 60 15 13 -2
7 -43 -15 -37 -21 -70 -35 -73 -32 -5 5 62 47 75 47 4 0 32 18 62 41 85 64
177 112 221 115 52 3 62 14 15 14 -41 0 -216 -72 -229 -93 -14 -27 -84 -68
-104 -61 -16 5 -16 4 -4 -5 13 -9 13 -11 -2 -11 -10 0 -18 -4 -18 -10 0 -6 -3
-9 -7 -8 -14 3 -102 -45 -97 -54 3 -4 -3 -8 -12 -8 -10 0 -14 -3 -11 -7 4 -3
2 -12 -4 -20 -6 -7 -9 -13 -6 -13 9 0 -36 -83 -62 -116 -12 -15 -26 -44 -31
-65 -6 -22 -13 -39 -15 -39 -2 0 -3 26 -1 58 2 62 29 120 82 177 27 29 27 30
6 33 -22 3 -32 22 -12 22 6 0 10 7 10 15 0 8 6 15 13 15 16 1 52 28 45 35 -3
3 -17 1 -32 -5 l-27 -10 18 25 c10 14 41 36 68 49 28 14 59 34 69 45 11 12 31
21 45 21 24 0 68 19 46 20 -11 1 35 29 48 30 5 0 5 -4 2 -10 -3 -5 -2 -10 4
-10 16 0 24 22 11 30 -24 15 -106 -22 -93 -43 3 -6 1 -7 -6 -3 -14 9 -64 -1
-57 -12 2 -4 -7 -13 -21 -19 -20 -10 -23 -9 -13 2 8 10 8 14 0 17 -7 2 13 14
44 27 31 12 56 27 56 33 0 5 5 6 11 2 6 -3 27 1 47 9 21 9 49 18 63 21 15 3
41 19 59 36 23 21 41 30 64 29 17 -1 23 -3 14 -6 -43 -11 -11 -20 67 -19 47 0
85 4 85 9 0 4 -29 7 -65 7 -42 0 -65 4 -65 11 0 8 19 10 63 5 89 -10 177 -29
171 -37 -2 -4 7 -10 21 -13 42 -11 135 -56 135 -66 0 -5 -12 -2 -27 5 -46 24
-52 -18 -8 -55 28 -23 28 -2 0 24 -31 29 -22 35 13 10 12 -8 22 -23 22 -32 0
-9 24 -33 52 -52 69 -47 174 -133 221 -181 21 -21 45 -39 55 -39 12 0 7 9 -18
30 -38 32 -34 40 7 13 27 -18 73 -105 72 -138 0 -13 -8 -4 -22 24 -12 25 -28
47 -34 49 -13 4 -5 -17 22 -58 5 -8 10 -22 10 -30 0 -8 5 -14 11 -13 5 1 16
-8 24 -20 12 -20 12 -21 -4 -8 -16 13 -16 12 -8 -10 26 -68 32 -106 37 -239 2
-80 9 -176 15 -215 6 -38 14 -91 17 -118 3 -26 10 -50 14 -53 13 -7 11 45 -3
106 -10 42 -9 53 3 65 24 24 40 2 45 -61 2 -32 6 -87 9 -121 5 -55 3 -62 -11
-56 -8 3 -20 17 -26 32 -10 23 -12 24 -16 6 -2 -10 1 -21 7 -23 7 -2 9 -22 5
-58 -7 -57 1 -67 30 -38 15 14 16 14 16 -3 0 -28 -28 -63 -45 -57 -9 4 -16 0
-16 -7 -5 -49 -7 -60 -16 -71 -16 -19 -29 -86 -38 -188 -2 -30 -9 -75 -15
-100 -12 -50 -51 -130 -63 -130 -4 0 -7 -6 -6 -12 1 -7 -3 -26 -9 -41 -7 -16
-12 -34 -12 -41 0 -21 -27 -40 -33 -24 -3 7 -4 -3 -3 -22 0 -21 -4 -35 -11
-36 -7 -1 -16 -2 -20 -3 -4 0 3 -8 15 -17 20 -14 21 -17 7 -31 -9 -8 -13 -18
-10 -22 10 -9 36 31 31 46 -3 7 1 13 9 13 10 0 12 -7 5 -29 -4 -16 -6 -31 -4
-34 2 -2 -2 -17 -11 -33 -13 -24 -13 -29 -1 -32 11 -2 14 -21 12 -85 -4 -120
32 -217 92 -246 17 -9 32 -21 32 -27 0 -11 -22 -25 -45 -29 -5 0 -32 -11 -60
-24 -27 -13 -55 -24 -61 -25 -7 -1 -19 -8 -28 -15 -18 -15 -87 -32 -124 -32
-13 1 -31 -3 -41 -9 -10 -5 -40 -12 -67 -16 -27 -3 -55 -11 -61 -16 -9 -7 -13
-7 -13 0 0 9 -99 6 -109 -3 -1 -2 -14 0 -28 6 -13 5 -22 5 -19 0 7 -10 -95 -7
-136 4 -16 4 -28 11 -28 16 0 5 -7 9 -15 9 -8 0 -15 5 -15 10 0 6 -6 10 -12 9
-16 -3 -48 10 -68 26 -8 7 -28 15 -43 19 -18 4 -25 11 -21 19 4 7 4 9 -1 5 -9
-8 -35 15 -35 31 0 6 -6 11 -14 11 -8 0 -35 19 -61 43 -26 23 -54 46 -61 50
-18 10 -18 31 1 47 8 7 13 16 10 20 -2 4 8 21 23 37 15 16 28 36 30 44 2 8 10
22 19 31 12 13 12 21 3 38 -7 12 -8 20 -2 16 12 -7 5 116 -9 162 -6 18 -8 39
-5 47 3 8 2 15 -3 15 -5 0 -8 9 -7 20 0 11 4 20 9 20 4 0 11 0 16 0 5 0 17 -7
26 -16 9 -9 18 -14 20 -12 9 9 -20 58 -38 64 -9 3 -15 9 -12 14 3 5 0 20 -8
32 -7 13 -13 32 -13 43 1 11 -7 26 -16 33 -9 7 -15 19 -12 27 4 8 -1 17 -9 21
-9 3 -14 14 -12 25 2 10 -1 19 -7 19 -5 0 -8 6 -5 13 2 6 1 21 -3 32 -4 11 -3
26 2 33 7 8 7 12 -1 12 -19 0 -49 74 -39 99 5 14 4 20 -2 16 -6 -3 -10 3 -10
14 0 12 -5 21 -11 21 -8 0 -8 5 1 15 9 11 9 15 1 15 -15 0 -27 -30 -15 -39 11
-7 11 -92 0 -109 -9 -15 -46 -16 -46 -1 0 5 -3 8 -8 5 -20 -12 -68 54 -63 87
1 10 -9 31 -23 47 -15 19 -27 48 -31 78 -3 26 -10 57 -15 70 -7 17 -6 22 5 22
8 0 15 5 15 10 0 6 -7 10 -15 10 -9 0 -15 9 -15 25 0 14 -5 25 -11 25 -6 0 -4
7 5 15 21 21 29 19 69 -20 20 -19 39 -35 42 -35 16 0 -41 64 -77 86 -46 30
-39 53 14 47 l33 -4 -33 22 -33 22 -20 -21 c-15 -17 -19 -36 -19 -92 0 -45 4
-69 10 -65 13 8 13 -1 -2 -24 -9 -15 -6 -36 16 -107 33 -106 69 -170 117 -212
47 -41 74 -41 99 0 l20 33 0 -35 c1 -50 24 -138 48 -187 25 -47 50 -234 53
-379 l2 -90 -49 -84 c-27 -45 -56 -85 -66 -88 -25 -6 -22 -19 6 -26 13 -3 56
-36 97 -72 93 -84 154 -123 271 -175 l93 -41 145 5 c239 9 402 48 623 149 37
17 67 35 67 40 0 12 -60 48 -92 55 -16 3 -28 10 -28 15 0 6 -10 24 -22 41 -22
30 -23 43 -26 248 l-3 217 45 89 c55 110 73 178 82 306 6 89 9 100 31 114 13
9 33 34 45 56 19 37 20 55 17 238 -3 167 -7 201 -20 215 -13 12 -21 14 -37 5
-10 -6 -22 -7 -26 -4 -3 3 -6 66 -6 138 0 247 -35 415 -103 499 -111 137 -158
177 -317 268 -215 124 -234 132 -334 133 -50 0 -113 -3 -140 -7z m629 -277
c32 -36 72 -76 88 -88 37 -27 14 -31 -26 -5 -15 10 -71 63 -124 117 l-98 99
52 -28 c30 -16 75 -56 108 -95z"/>
<path d="M1254 2742 c4 -7 -15 -13 -50 -18 -31 -3 -51 -10 -44 -14 6 -4 41 -2
76 5 36 7 64 8 64 3 0 -8 113 -7 250 2 25 2 25 2 -5 15 -16 8 -43 14 -60 13
-29 -1 -29 -1 5 -8 l35 -7 -45 -3 c-91 -6 -168 -5 -164 1 2 4 -3 9 -11 13 -8
3 -15 1 -15 -5 0 -6 -8 -5 -21 2 -13 6 -19 7 -15 1z"/>
<path d="M1560 2710 c-17 -5 -19 -8 -7 -9 9 -1 18 0 20 1 1 2 13 -5 27 -15 27
-19 40 -22 40 -8 0 5 -10 11 -22 13 -13 2 -22 9 -20 16 2 13 -2 14 -38 2z"/>
<path d="M1229 2670 c-19 -10 -41 -26 -49 -35 -8 -10 6 -6 39 11 29 15 69 31
89 34 l37 8 -40 0 c-22 1 -56 -7 -76 -18z"/>
<path d="M1440 2675 c30 -8 71 -14 90 -13 23 0 27 2 13 5 -13 2 -23 8 -23 11
0 4 -30 8 -67 9 l-68 2 55 -14z"/>
<path d="M1390 2640 c-36 -4 -59 -7 -52 -8 7 -1 10 -7 6 -14 -5 -8 8 -9 52 -4
32 4 69 7 82 7 12 0 22 4 22 10 0 6 -7 9 -15 5 -8 -3 -15 -1 -15 4 0 6 -3 9
-7 8 -5 -1 -37 -4 -73 -8z"/>
<path d="M1253 2582 c-50 -20 -84 -49 -44 -37 13 4 40 14 60 23 20 9 45 17 55
19 32 6 32 13 0 12 -16 0 -48 -8 -71 -17z"/>
<path d="M1810 1910 c0 -5 12 -11 28 -11 17 -1 20 -3 9 -6 -30 -8 -8 -23 26
-17 82 14 82 14 63 32 -13 13 -19 14 -24 5 -6 -10 -17 -10 -42 -3 -44 13 -60
13 -60 0z"/>
<path d="M1330 1850 c0 -8 -9 -10 -25 -6 -18 5 -24 3 -23 -6 2 -8 -7 -12 -24
-11 -19 1 -28 -3 -28 -13 0 -18 31 -18 73 -1 18 8 37 12 44 10 6 -2 14 0 17 6
3 5 16 7 29 4 15 -4 19 -2 12 5 -16 16 -75 26 -75 12z"/>
<path d="M831 1822 c-8 -18 -11 -35 -8 -38 8 -9 29 35 25 54 -2 12 -8 7 -17
-16z"/>
<path d="M1885 1813 c-11 -2 -30 -6 -42 -8 -24 -6 -83 -52 -83 -66 0 -5 12 -9
27 -9 20 0 24 3 16 11 -12 12 -7 39 6 39 4 0 13 -11 19 -25 21 -45 112 -28
112 21 0 22 2 23 20 14 11 -6 18 -15 15 -21 -4 -5 4 -9 16 -9 12 0 30 -7 40
-16 18 -16 59 -11 59 7 0 6 -5 7 -10 4 -6 -4 -24 5 -41 19 -43 36 -100 51
-154 39z"/>
<path d="M1350 1771 c14 -4 42 -18 63 -30 46 -26 70 -27 65 -4 -3 17 -27 25
-118 38 -29 4 -30 3 -10 -4z"/>
<path d="M1710 1762 c0 -11 -2 -26 -3 -34 -2 -7 -2 -10 0 -5 3 4 9 5 14 1 5
-3 9 -1 9 5 0 5 7 17 16 25 8 9 11 16 6 16 -6 0 -17 3 -26 6 -11 4 -16 0 -16
-14z"/>
<path d="M1213 1740 c-17 -4 -55 -24 -82 -44 -28 -20 -58 -36 -66 -36 -8 0
-15 -4 -15 -10 0 -16 33 -12 78 10 22 11 46 20 52 20 5 0 10 7 10 15 0 22 27
18 33 -5 4 -17 14 -20 56 -20 l51 0 0 36 0 35 43 -23 c23 -13 45 -27 49 -33 4
-5 10 -6 14 -2 10 10 -2 20 -51 46 -41 22 -109 26 -172 11z"/>
<path d="M1910 1660 c17 -11 86 -12 114 -1 12 4 -10 8 -55 9 -51 1 -69 -1 -59
-8z"/>
<path d="M1325 1613 c-54 -19 -74 -22 -88 -14 -13 9 -16 8 -15 -1 2 -8 -9 -14
-24 -16 -16 -2 -28 -8 -28 -13 0 -6 9 -7 20 -4 11 4 43 7 71 9 28 1 53 7 57
12 4 6 22 16 40 23 18 8 35 18 38 22 3 5 4 9 2 8 -2 0 -34 -12 -73 -26z"/>
<path d="M1760 1500 c0 -6 7 -10 16 -10 9 0 24 -10 35 -22 18 -22 26 -15 11 9
-10 16 -62 35 -62 23z"/>
<path d="M829 1473 c-6 -38 -5 -103 2 -103 5 0 9 10 9 23 0 13 5 28 11 34 12
12 3 53 -12 53 -5 0 -10 -3 -10 -7z"/>
<path d="M890 1443 c-7 -40 -1 -113 10 -113 6 0 9 15 9 33 -2 38 -16 98 -19
80z"/>
<path d="M1423 1438 c-18 -23 -51 -98 -43 -98 11 0 40 35 40 49 0 6 7 23 16
36 16 25 5 36 -13 13z"/>
<path d="M1836 1418 c5 -13 8 -33 7 -45 0 -13 4 -23 9 -23 6 0 5 -7 -3 -16
-10 -13 -10 -17 2 -24 7 -5 18 -5 22 -1 10 10 -23 131 -36 131 -5 0 -5 -10 -1
-22z"/>
<path d="M1712 1394 c-7 -3 -17 -14 -22 -25 -9 -17 -7 -18 17 -15 62 9 94 19
90 30 -4 12 -63 19 -85 10z"/>
<path d="M1490 1367 c-40 -20 -32 -42 17 -45 35 -3 42 0 48 19 6 16 9 18 16 8
4 -7 12 -10 16 -5 11 10 -26 36 -51 36 -12 0 -32 -6 -46 -13z"/>
<path d="M1420 1322 c0 -16 37 -52 53 -52 6 0 19 5 27 10 12 8 10 10 -9 10
-14 0 -35 10 -48 22 -13 12 -23 16 -23 10z"/>
<path d="M826 1311 c-6 -9 44 -35 52 -26 6 5 -27 34 -40 35 -4 0 -9 -4 -12 -9z"/>
<path d="M1346 1295 c-9 -13 -16 -31 -16 -39 0 -9 -18 -32 -39 -53 -24 -23
-41 -50 -44 -68 -2 -16 -2 -24 0 -17 3 6 9 12 15 12 5 0 8 5 6 12 -2 6 10 25
28 41 35 30 67 77 79 115 9 29 -9 28 -29 -3z"/>
<path d="M1722 1305 c-11 -12 -10 -15 2 -15 11 0 14 -8 11 -30 -2 -16 1 -30 7
-30 5 0 8 7 4 15 -7 18 5 20 22 3 9 -9 15 -9 24 0 7 7 8 12 2 12 -18 0 -51 34
-47 48 6 16 -9 15 -25 -3z"/>
<path d="M1536 1264 c-15 -38 9 -41 32 -4 11 17 10 20 -7 20 -10 0 -22 -7 -25
-16z"/>
<path d="M1812 1234 c-7 -8 -17 -12 -22 -9 -6 3 -7 -1 -4 -9 7 -18 31 -28 39
-16 4 6 1 10 -6 10 -7 0 -5 6 6 13 10 8 14 16 9 19 -5 3 -15 0 -22 -8z"/>
<path d="M1962 1204 c-7 -8 -8 -14 -2 -14 5 0 10 -5 10 -11 0 -5 -4 -7 -10 -4
-5 3 -10 2 -10 -2 0 -12 22 -33 35 -33 5 0 3 5 -5 10 -12 8 -13 11 -1 19 11 7
11 10 0 16 -10 6 -8 10 6 15 14 5 15 8 4 12 -8 3 -20 -1 -27 -8z"/>
<path d="M1918 1124 c-15 -8 -42 -14 -60 -14 -185 1 -218 -2 -287 -20 -41 -12
-107 -21 -148 -22 -53 0 -76 -4 -80 -14 -3 -8 -11 -14 -19 -14 -8 0 -14 -4
-14 -9 0 -16 24 -19 50 -5 14 7 68 18 120 23 52 5 115 14 140 21 46 12 192 9
221 -4 9 -4 22 -2 30 6 14 13 54 34 76 40 7 2 9 8 5 15 -5 8 -14 8 -34 -3z"/>
<path d="M1592 935 c3 -13 0 -26 -6 -28 -17 -6 56 -17 79 -12 11 2 30 4 43 4
21 1 21 2 5 19 -17 17 -20 18 -37 3 -13 -10 -17 -11 -12 -3 7 11 4 12 -13 3
-18 -10 -21 -9 -22 6 0 11 -3 13 -6 6 -8 -21 -26 -15 -20 7 3 11 1 20 -5 20
-6 0 -8 -11 -6 -25z"/>
<path d="M1124 748 c-4 -5 3 -20 15 -31 12 -12 21 -16 21 -9 0 7 -6 12 -12 12
-7 0 -5 5 5 11 9 5 17 13 17 17 0 12 -39 12 -46 0z"/>
<path d="M1178 733 c-16 -4 -16 -7 -3 -27 8 -12 12 -26 8 -29 -3 -4 2 -7 13
-7 10 -1 33 -7 49 -16 l30 -14 -29 6 c-25 4 -28 3 -17 -9 6 -8 27 -18 45 -21
19 -4 39 -13 46 -21 7 -8 21 -15 31 -15 11 0 19 -4 19 -9 0 -9 52 -22 59 -15
2 2 -10 9 -27 15 -18 6 -32 15 -32 20 0 5 -6 9 -14 9 -7 0 -25 11 -40 25 -14
13 -42 32 -61 41 -19 9 -35 23 -35 30 0 8 -7 14 -16 14 -10 0 -14 6 -10 15 3
8 4 14 3 14 -1 -1 -10 -3 -19 -6z"/>
<path d="M1871 679 c-13 -11 -21 -22 -18 -25 9 -9 47 16 47 31 0 19 0 19 -29
-6z"/>
<path d="M1130 656 c0 -9 13 -30 30 -47 16 -18 27 -35 24 -40 -3 -5 2 -6 10
-3 19 7 12 25 -30 69 -22 24 -34 31 -34 21z"/>
<path d="M1793 648 c-31 -10 -45 -28 -23 -28 16 0 60 23 60 32 0 4 -1 8 -2 7
-2 -1 -18 -6 -35 -11z"/>
<path d="M1479 637 c12 -12 36 -18 63 -18 10 0 20 -5 23 -10 4 -5 11 -7 16 -3
16 9 0 24 -27 24 -13 0 -24 3 -24 8 0 4 -14 7 -31 8 -21 1 -27 -2 -20 -9z"/>
<path d="M1626 625 c-28 -12 -28 -12 -5 -18 24 -7 44 4 38 21 -2 5 -16 4 -33
-3z"/>
<path d="M840 260 c-19 -16 -30 -29 -25 -29 6 0 26 13 45 29 19 17 30 30 24
30 -5 0 -25 -13 -44 -30z"/>
<path d="M764 208 c-7 -12 -5 -14 26 -22 19 -6 21 -5 10 3 -12 8 -12 11 -1 11
7 0 35 -19 63 -41 27 -23 51 -39 54 -37 5 5 -27 34 -81 73 -30 22 -62 28 -71
13z"/>
</g>
</svg>
