<?xml version="1.0" standalone="no"?>
<!DOCTYPE svg PUBLIC "-//W3C//DTD SVG 20010904//EN"
 "http://www.w3.org/TR/2001/REC-SVG-20010904/DTD/svg10.dtd">
<svg version="1.0" xmlns="http://www.w3.org/2000/svg"
 width="514.000000pt" height="386.000000pt" viewBox="0 0 514.000000 386.000000"
 preserveAspectRatio="xMidYMid meet">
<metadata>
Created by potrace 1.16, written by Peter Selinger 2001-2019
</metadata>
<g transform="translate(0.000000,386.000000) scale(0.100000,-0.100000)"
fill="#000000" stroke="none">
<path d="M698 3288 c-258 -206 -424 -345 -426 -357 -2 -11 32 -194 74 -407
l77 -386 398 -369 397 -368 234 -41 c308 -53 281 -46 274 -78 -30 -124 -30
-124 -144 -220 l-109 -92 -133 -19 -132 -20 -96 37 -96 37 -48 90 -48 90 0
153 c0 117 -3 152 -13 152 -7 0 -38 -71 -75 -173 l-63 -172 47 -153 47 -153
142 -74 142 -75 205 18 205 18 149 119 c82 65 151 122 154 126 3 4 41 127 85
274 72 241 81 263 87 228 4 -21 32 -288 63 -593 31 -305 60 -564 65 -575 6
-16 40 -31 149 -65 l141 -44 138 44 c75 24 140 46 144 49 4 3 35 279 70 613
34 334 66 602 69 595 4 -7 42 -128 85 -270 l78 -258 144 -116 c80 -64 157
-120 171 -124 14 -5 111 -16 214 -24 l189 -15 131 71 c73 39 137 76 143 82 13
14 94 276 94 303 0 11 -27 91 -59 179 -80 218 -91 219 -91 10 l0 -157 -45 -86
-45 -87 -97 -37 -98 -36 -128 18 c-70 10 -136 24 -147 31 -10 8 -61 50 -113
94 -93 80 -94 80 -115 155 -11 41 -19 76 -17 78 1 2 116 23 256 47 216 38 256
48 278 68 90 82 730 674 749 691 19 19 34 78 103 425 44 222 79 404 77 405 -2
2 -194 156 -428 342 l-425 340 -474 -31 -474 -31 -189 31 -188 32 -188 -32
-187 -31 -420 27 c-231 15 -446 29 -477 31 l-58 4 -422 -338z m861 280 c298
-18 359 -24 335 -34 -44 -17 -793 -159 -800 -151 -6 6 5 58 37 180 9 35 13 38
37 33 15 -3 191 -15 391 -28z m2220 -65 c12 -54 25 -105 27 -114 3 -13 -68 -1
-398 63 -222 42 -411 81 -422 86 -11 5 138 18 370 34 214 14 391 26 395 27 3
0 15 -43 28 -96z m-1380 70 c-8 -10 -71 -86 -141 -170 l-126 -152 -18 27 c-15
21 -19 52 -22 143 l-4 117 68 11 c38 6 105 17 149 25 112 19 110 19 94 -1z
m274 -14 l138 -22 -6 -116 c-7 -111 -23 -167 -45 -159 -5 2 -71 77 -146 167
-122 146 -134 163 -108 159 16 -4 91 -16 167 -29z m-1597 -95 c-15 -60 -32
-104 -43 -112 -10 -7 -137 -76 -283 -154 -146 -77 -281 -150 -300 -161 -19
-11 -31 -16 -27 -11 15 17 672 541 675 539 2 -2 -8 -47 -22 -101z m1351 -221
c-3 -2 -64 -2 -137 -1 l-132 3 133 161 134 161 3 -160 c1 -88 1 -162 -1 -164z
m133 215 c52 -62 114 -137 138 -165 l44 -53 -141 0 -141 0 0 165 c0 91 2 165
3 165 2 0 46 -51 97 -112z m1565 -151 c346 -276 366 -294 275 -245 -36 19
-175 94 -310 166 l-246 132 -22 92 c-26 108 -26 112 -9 102 6 -5 147 -116 312
-247z m-2277 174 c-1 -5 -56 -64 -121 -130 l-119 -121 -196 51 c-109 28 -215
55 -237 61 -37 10 -17 15 305 79 377 74 373 73 368 60z m1575 -62 c213 -41
322 -66 310 -71 -15 -7 -438 -118 -448 -118 -1 0 -58 59 -126 132 -110 116
-120 131 -94 126 17 -3 178 -34 358 -69z m-1422 -41 c61 -83 69 -98 69 -138
l0 -45 -106 -83 c-58 -46 -108 -81 -111 -78 -3 2 11 101 31 220 20 118 36 218
36 222 0 11 7 2 81 -98z m1247 -159 c5 -11 -158 -192 -166 -184 -3 3 -22 103
-42 223 l-36 217 121 -123 c66 -68 122 -128 123 -133z m-1396 26 l-37 -220
-89 93 -89 94 59 61 c152 159 188 196 191 194 1 -2 -15 -102 -35 -222z m1160
3 c20 -122 36 -223 35 -224 -1 -1 -53 39 -116 89 l-113 91 6 44 c5 34 22 66
72 133 36 49 69 89 73 89 3 0 23 -100 43 -222z m-1689 -258 c141 -184 255
-336 254 -337 -4 -3 -1257 282 -1257 287 1 10 735 397 742 391 3 -3 121 -157
261 -341z m2965 107 c155 -83 282 -154 282 -157 0 -7 -1243 -290 -1248 -285
-2 2 113 156 255 343 l258 340 85 -45 c47 -24 212 -112 368 -196z m-2913 163
c110 -28 207 -54 215 -59 10 -5 22 -51 36 -132 12 -68 21 -125 21 -126 -1 0
-117 84 -257 189 -140 105 -246 188 -235 185 11 -3 110 -29 220 -57z m2370 51
c-55 -49 -495 -368 -495 -358 0 20 40 241 45 245 3 3 434 118 455 121 2 1 0
-3 -5 -8z m-2312 -251 c119 -89 217 -168 217 -175 0 -15 -39 -207 -43 -211 -1
-1 -45 55 -98 124 -53 70 -156 206 -230 302 -93 122 -123 167 -99 149 19 -14
133 -99 253 -189z m2081 -94 c-120 -157 -220 -286 -224 -286 -3 0 -15 48 -27
107 -19 99 -19 109 -4 119 9 7 117 88 241 182 124 93 226 168 228 167 2 -2
-94 -132 -214 -289z m-1084 149 c0 -58 -3 -105 -6 -105 -7 0 -254 200 -254
206 0 2 59 4 130 4 l130 0 0 -105z m290 92 c-36 -28 -226 -181 -242 -195 -17
-14 -18 -9 -18 96 l0 112 138 0 c109 -1 134 -3 122 -13z m69 -96 c-1 -47 -4
-116 -8 -152 l-6 -66 -141 41 c-78 22 -141 46 -141 51 0 6 61 60 136 121 98
80 140 108 149 101 8 -6 12 -37 11 -96z m-509 -16 c72 -59 128 -111 123 -115
-4 -4 -70 -26 -146 -48 -95 -28 -139 -37 -142 -29 -2 7 -6 76 -9 154 -5 142
-2 158 30 148 7 -2 71 -52 144 -110z m730 -74 l35 -29 -25 -10 c-14 -5 -65
-26 -114 -46 -49 -20 -91 -34 -94 -31 -2 2 -1 63 3 134 l7 131 77 -60 c42 -32
92 -72 111 -89z m-1287 55 l77 -84 -56 -32 c-31 -17 -58 -29 -60 -27 -3 2 -11
42 -19 88 -8 46 -17 96 -21 112 -3 15 -4 27 -1 27 2 0 38 -38 80 -84z m357
-47 c3 -68 5 -125 4 -127 -1 -2 -54 18 -119 44 l-117 47 28 22 c16 13 63 50
104 83 41 33 80 59 85 58 6 -1 12 -57 15 -127z m1154 9 c-10 -57 -18 -104 -20
-106 -3 -4 -74 32 -99 51 -18 14 -16 18 55 91 40 42 75 74 78 72 2 -3 -4 -51
-14 -108z m-1154 -170 c0 -12 -153 -199 -158 -193 -5 5 -71 266 -72 282 0 6
48 -8 115 -35 63 -25 115 -50 115 -54z m931 -53 l-37 -149 -82 100 c-45 54
-82 101 -82 104 0 5 233 100 237 96 1 -1 -15 -69 -36 -151z m-581 -1 l0 -136
-27 18 c-145 94 -252 168 -249 172 5 4 255 80 269 81 4 1 7 -60 7 -135z m180
96 c74 -22 137 -40 140 -40 3 0 -59 -43 -137 -95 -79 -52 -145 -95 -148 -95
-3 0 -5 61 -5 135 0 74 3 135 8 135 4 0 68 -18 142 -40z m-1670 -136 c333 -75
611 -139 618 -143 7 -4 -232 -108 -548 -238 -526 -216 -561 -229 -565 -209
-10 42 -145 720 -145 729 0 4 8 6 18 3 9 -3 289 -67 622 -142z m3581 -233
l-75 -378 -176 72 c-779 320 -948 390 -945 394 3 2 1242 287 1266 290 3 1 -28
-169 -70 -378z m-1816 207 c-29 -61 -50 -94 -62 -96 -10 -1 -49 1 -87 5 l-69
8 129 87 c71 48 130 87 131 87 1 1 -18 -41 -42 -91z m-419 -2 l125 -83 -87 -7
c-47 -4 -87 -6 -89 -4 -8 10 -83 178 -79 178 2 0 61 -38 130 -84z m603 -26
l72 -90 -45 -56 c-25 -31 -46 -54 -46 -51 0 5 -43 212 -55 265 -3 12 -4 22 -2
22 2 0 36 -40 76 -90z m-837 -69 l-28 -134 -42 53 c-23 29 -42 57 -42 62 0 13
134 171 137 161 2 -4 -10 -68 -25 -142z m-212 -7 c52 -21 73 -36 103 -75 l39
-49 -54 22 c-33 14 -80 24 -127 26 -61 3 -80 8 -113 32 l-39 28 53 21 c67 25
61 26 138 -5z m1342 9 c62 -23 63 -27 19 -56 -33 -22 -52 -27 -101 -27 -41 0
-80 -8 -120 -24 -33 -14 -60 -22 -60 -18 0 4 17 26 38 49 24 29 57 51 97 68
72 29 74 29 127 8z m-752 -133 c0 -60 -2 -110 -4 -110 -4 0 -166 199 -166 204
0 9 36 14 103 15 l67 1 0 -110z m192 102 c14 -6 2 -26 -68 -112 -47 -57 -87
-106 -89 -109 -3 -2 -5 48 -5 112 l0 117 73 -1 c39 0 80 -3 89 -7z m-1066
-144 c-23 -73 -107 -336 -186 -585 l-144 -452 -32 27 c-87 73 -733 677 -726
680 5 1 258 105 563 232 305 126 557 229 561 229 3 1 -13 -59 -36 -131z m2319
-103 c303 -125 551 -228 553 -230 2 -1 -167 -160 -375 -353 -228 -211 -381
-345 -384 -338 -8 13 -369 1141 -369 1151 0 4 6 5 13 2 6 -3 260 -107 562
-232z m-1546 116 c44 -55 81 -102 81 -105 0 -4 -36 -6 -80 -6 l-80 0 0 68 c0
37 -3 84 -6 105 -4 20 -4 37 -2 37 3 0 42 -45 87 -99z m316 -48 l-7 -63 -80 0
-80 0 42 53 c23 28 61 76 84 105 l41 53 3 -43 c2 -24 1 -71 -3 -105z m720
-343 c46 -250 82 -456 81 -457 -6 -6 -451 413 -450 424 3 29 279 523 283 506
2 -10 41 -223 86 -473z m-1596 217 l139 -256 -232 -214 -232 -214 87 471 c48
259 88 473 88 475 2 9 16 -15 150 -262z m7 161 l62 -63 25 -120 c14 -66 24
-121 22 -123 -1 -1 -52 90 -113 203 -119 222 -119 230 4 103z m1347 -103 c-58
-108 -107 -194 -110 -192 -2 3 8 58 22 123 l25 119 75 73 c41 39 79 72 84 72
5 0 -38 -88 -96 -195z m-1627 -351 l-75 -409 -77 -72 c-43 -40 -80 -71 -81
-69 -4 4 301 965 304 962 2 -1 -31 -187 -71 -412z m1989 -74 c81 -256 150
-472 153 -480 3 -8 -32 21 -79 64 l-84 79 -72 391 c-70 379 -77 424 -69 415 2
-2 70 -213 151 -469z m-1055 295 c0 -58 -2 -105 -4 -105 -5 0 -156 197 -156
204 0 3 36 6 80 6 l80 0 0 -105z m193 93 c-5 -7 -39 -51 -74 -98 -35 -46 -69
-91 -76 -100 -10 -12 -12 7 -13 98 l0 112 86 0 c68 0 84 -3 77 -12z m-292
-115 c41 -54 78 -103 82 -110 6 -10 -12 -13 -89 -13 l-97 0 7 73 c8 81 17 147
21 147 1 0 36 -44 76 -97z m324 10 c3 -49 9 -98 12 -110 5 -23 4 -23 -95 -23
l-101 0 82 109 c45 61 85 110 88 110 4 1 10 -38 14 -86z m-576 -175 c-23 -45
-44 -85 -46 -88 -3 -3 -23 15 -44 40 l-39 45 83 83 82 83 3 -40 c2 -30 -7 -59
-39 -123z m865 3 c2 -3 -15 -27 -38 -54 l-42 -47 -48 98 c-35 75 -45 106 -40
126 6 26 7 26 85 -45 44 -39 81 -74 83 -78z m-514 -111 c0 -66 -2 -120 -4
-120 -2 0 -45 54 -96 120 l-91 120 95 0 96 0 0 -120z m220 115 c0 -4 -162
-219 -181 -240 -5 -5 -9 45 -9 118 l0 127 95 0 c52 0 95 -2 95 -5z m-321 -150
c104 -135 105 -125 -15 -139 l-61 -7 -7 88 c-4 48 -9 111 -13 138 -3 28 -3 48
-1 45 3 -3 47 -59 97 -125z m327 28 c-4 -49 -9 -108 -13 -131 l-6 -44 -46 6
c-25 4 -63 9 -83 12 l-37 6 91 119 c50 65 93 119 96 119 3 0 2 -39 -2 -87z
m-806 -169 c-54 -245 -98 -414 -109 -426 -5 -6 -472 68 -477 75 -2 3 631 584
634 582 1 -1 -20 -105 -48 -231z m878 146 c17 -47 46 -129 66 -183 l35 -97
-81 61 -80 62 5 56 c4 31 9 87 13 124 3 37 8 67 9 65 2 -2 16 -41 33 -88z
m619 -233 c156 -143 282 -262 280 -263 -4 -5 -469 -85 -472 -82 -10 10 -62
214 -108 425 l-53 242 35 -31 c20 -18 163 -149 318 -291z m-1132 188 l10 -114
-73 -57 c-40 -31 -75 -54 -76 -53 -6 6 118 348 124 343 3 -3 10 -57 15 -119z
m215 -252 c0 -75 -4 -133 -8 -128 -30 34 -153 237 -147 243 6 6 77 17 133 21
22 1 22 0 22 -136z m182 118 c14 -5 4 -27 -67 -136 l-85 -130 0 143 0 144 68
-8 c37 -3 75 -9 84 -13z m-466 -220 c-35 -101 -65 -180 -68 -175 -3 5 -8 47
-12 94 -4 47 -9 99 -12 116 -5 30 -1 35 73 92 43 33 79 59 80 58 1 -1 -27 -84
-61 -185z m253 -34 c13 -21 22 -39 20 -41 -2 -2 -39 -6 -81 -10 l-78 -7 0 138
0 137 58 -89 c32 -50 68 -107 81 -128z m241 77 l0 -135 -72 6 c-40 4 -79 8
-85 10 -8 3 18 51 68 130 45 69 83 125 85 125 2 0 4 -61 4 -136z m139 76 l62
-45 -7 -90 c-14 -198 -11 -198 -78 -3 -33 95 -62 179 -64 187 -6 17 3 12 87
-49z m-605 -268 c-32 -28 -59 -51 -60 -49 -2 1 23 78 54 169 l57 166 3 -116 3
-117 -57 -53z m850 44 c15 -54 25 -100 22 -103 -8 -9 -76 -21 -80 -14 -8 13
-58 193 -54 195 3 3 82 23 84 22 1 -1 14 -45 28 -100z m-1043 76 c3 -4 -8 -50
-25 -103 l-31 -95 -41 8 -42 9 27 100 26 101 40 -7 c22 -3 43 -9 46 -13z m449
-179 c0 -64 -4 -103 -9 -97 -36 37 -149 179 -146 183 4 3 43 9 143 20 9 1 12
-26 12 -106z m158 91 c17 -3 32 -7 32 -10 0 -3 -36 -48 -80 -100 l-80 -95 0
110 0 111 48 -6 c26 -3 62 -7 80 -10z m-239 -136 c81 -98 82 -92 -31 -102
l-58 -5 0 107 c0 58 4 102 8 97 5 -6 41 -49 81 -97z m291 -2 l0 -105 -72 6
c-40 3 -76 8 -80 12 -7 6 137 191 148 191 2 0 4 -47 4 -104z m-210 -243 l0
-127 -80 114 c-44 63 -77 117 -72 121 4 5 32 10 62 12 30 2 63 4 73 5 15 2 17
-10 17 -125z m187 112 c8 -3 -19 -49 -68 -120 -44 -63 -83 -115 -85 -115 -2 0
-4 56 -4 125 l0 125 73 -6 c39 -3 78 -7 84 -9z m16 -117 c-2 -46 -6 -106 -9
-134 l-5 -52 -37 8 c-20 4 -54 11 -75 14 l-37 7 82 119 c45 66 82 120 83 120
1 0 0 -37 -2 -82z m-288 -39 c42 -60 75 -112 73 -114 -4 -5 -142 -35 -144 -32
-4 5 -15 257 -11 257 2 0 39 -50 82 -111z m-560 20 c20 -12 33 -25 28 -29 -4
-4 -65 -53 -135 -108 l-127 -102 -30 39 c-17 21 -31 42 -31 45 0 5 250 176
257 176 1 0 18 -10 38 -21z m1488 -60 c67 -45 125 -84 129 -88 4 -3 -8 -25
-26 -48 l-33 -42 -119 95 c-162 130 -153 119 -113 143 19 12 35 21 37 21 1 0
58 -37 125 -81z m-2259 -55 c48 -42 79 -79 89 -105 l16 -40 -107 57 c-59 31
-109 58 -111 60 -4 4 30 94 36 94 3 0 37 -29 77 -66z m2967 16 c18 -40 18 -40
-4 -54 -41 -25 -197 -105 -197 -101 0 3 7 22 16 42 15 35 152 168 163 158 2
-3 12 -23 22 -45z m-2526 3 c-4 -21 -8 -39 -8 -39 -1 -1 -69 -5 -152 -9 l-149
-7 33 28 c29 24 51 31 150 45 64 9 120 17 125 18 4 0 5 -16 1 -36z m2123 16
c89 -11 107 -17 135 -41 l32 -29 -145 7 c-80 3 -148 9 -151 13 -4 3 -9 21 -13
40 -5 31 -4 33 17 28 12 -3 68 -11 125 -18z m-1148 -466 c0 -86 -2 -154 -4
-152 -6 6 -116 282 -116 291 0 6 31 11 98 16 22 2 22 2 22 -155z m157 142 c2
-1 -26 -73 -62 -161 l-64 -159 -1 168 0 168 63 -7 c34 -4 63 -7 64 -9z m-171
-352 c-2 -3 -29 3 -60 13 l-56 18 0 135 1 136 60 -149 c33 -82 58 -151 55
-153z m174 158 l0 -130 -56 -16 c-31 -9 -57 -15 -59 -13 -3 3 108 288 113 288
1 0 2 -58 2 -129z"/>
</g>
</svg>
