<?xml version="1.0" standalone="no"?>
<!DOCTYPE svg PUBLIC "-//W3C//DTD SVG 20010904//EN"
 "http://www.w3.org/TR/2001/REC-SVG-20010904/DTD/svg10.dtd">
<svg version="1.0" xmlns="http://www.w3.org/2000/svg"
 width="225.000000pt" height="225.000000pt" viewBox="0 0 225.000000 225.000000"
 preserveAspectRatio="xMidYMid meet">
<metadata>
Created by potrace 1.16, written by Peter Selinger 2001-2019
</metadata>
<g transform="translate(0.000000,225.000000) scale(0.100000,-0.100000)"
fill="#000000" stroke="none">
<path d="M972 2166 c-68 -19 -125 -36 -128 -39 -4 -4 74 -242 101 -310 7 -17
14 -18 64 -10 49 7 112 7 255 0 l39 -2 53 149 c30 82 54 154 54 162 0 7 -24
19 -52 28 -110 31 -217 56 -240 55 -12 0 -78 -15 -146 -33z"/>
<path d="M710 2096 c-150 -40 -201 -57 -198 -65 7 -16 214 -260 225 -265 13
-5 182 19 190 28 10 10 -104 321 -118 323 -8 1 -52 -9 -99 -21z"/>
<path d="M1425 2098 c-4 -13 -30 -85 -57 -161 -28 -76 -48 -141 -45 -143 10
-10 190 -35 197 -27 73 85 220 263 220 267 0 8 -275 86 -304 86 -2 0 -8 -10
-11 -22z"/>
<path d="M465 1978 c-10 -24 -36 -81 -57 -127 -30 -66 -36 -86 -26 -93 20 -14
290 -148 298 -148 4 0 16 31 27 69 l20 70 -71 83 c-39 46 -91 107 -114 136
-24 28 -47 52 -51 52 -4 0 -16 -19 -26 -42z"/>
<path d="M1638 1884 c-62 -75 -113 -139 -112 -142 4 -32 39 -132 46 -132 11 0
308 149 308 155 0 2 -14 35 -31 72 -17 38 -42 91 -54 119 -13 28 -27 54 -33
58 -6 3 -61 -55 -124 -130z"/>
<path d="M318 1903 c-54 -3 -78 -8 -78 -16 0 -7 25 -37 55 -67 l55 -54 30 67
c32 71 34 78 23 75 -5 -1 -43 -4 -85 -5z"/>
<path d="M1840 1904 c0 -1 14 -33 30 -70 l31 -68 59 59 c40 40 56 61 47 66
-11 6 -167 19 -167 13z"/>
<path d="M234 1847 c3 -11 9 -30 12 -43 6 -25 80 -72 92 -59 3 3 -20 31 -52
63 -32 31 -56 49 -52 39z"/>
<path d="M1974 1817 c-21 -23 -45 -50 -53 -60 -13 -16 -12 -17 13 -7 53 20 65
31 75 67 6 20 9 38 7 40 -1 2 -20 -16 -42 -40z"/>
<path d="M1043 1783 c-3 -10 -16 -44 -29 -77 l-23 -58 66 -125 c36 -68 69
-121 73 -116 4 4 35 60 68 124 l61 116 -28 74 -28 74 -77 3 c-66 2 -77 0 -83
-15z"/>
<path d="M875 1766 c-89 -17 -120 -26 -119 -37 3 -27 74 -252 84 -264 6 -7 22
-15 35 -17 21 -4 27 1 39 36 9 23 38 101 65 174 40 108 46 132 32 131 -9 -1
-70 -11 -136 -23z"/>
<path d="M1230 1780 c0 -12 94 -272 113 -311 11 -23 16 -25 43 -18 29 8 32 14
70 141 21 73 39 137 39 142 0 6 -45 18 -100 27 -55 10 -115 21 -132 24 -20 4
-33 2 -33 -5z"/>
<path d="M305 1633 c-28 -60 -50 -112 -50 -117 0 -5 86 -26 192 -46 l192 -36
15 61 c9 34 18 69 22 78 4 12 -27 32 -147 91 -84 42 -157 76 -164 76 -6 0 -33
-48 -60 -107z"/>
<path d="M1722 1664 c-92 -45 -152 -80 -149 -87 2 -7 10 -38 18 -71 7 -32 19
-60 27 -63 15 -6 362 56 375 67 9 8 -95 230 -108 229 -5 0 -79 -34 -163 -75z"/>
<path d="M715 1648 c-9 -35 -21 -76 -26 -92 -14 -47 -11 -54 34 -80 48 -28
103 -26 92 3 -4 9 -22 64 -42 124 -19 59 -36 107 -37 107 -2 0 -11 -28 -21
-62z"/>
<path d="M1474 1590 l-41 -125 26 -7 c18 -5 37 -1 68 18 42 24 43 27 37 62 -4
20 -17 68 -28 107 l-22 70 -40 -125z"/>
<path d="M966 1578 c-8 -24 -24 -66 -34 -94 l-19 -51 27 -86 26 -87 67 50 c36
28 69 55 72 60 5 8 -111 250 -120 250 -2 0 -10 -19 -19 -42z"/>
<path d="M1200 1501 c-33 -67 -58 -126 -55 -132 4 -5 36 -32 73 -60 l66 -50
26 88 26 88 -33 89 c-18 49 -35 92 -38 94 -2 2 -31 -51 -65 -117z"/>
<path d="M201 1411 c-23 -44 -41 -86 -41 -92 0 -11 14 -11 342 7 l108 6 10 37
c5 20 10 39 10 43 0 8 -56 20 -220 48 -69 12 -135 24 -147 26 -19 5 -27 -5
-62 -75z"/>
<path d="M1807 1455 c-98 -18 -181 -35 -183 -38 -3 -3 0 -23 6 -46 11 -40 12
-41 58 -43 26 0 59 -2 74 -3 15 -1 96 -5 179 -9 l151 -7 -7 23 c-16 50 -76
158 -88 157 -6 0 -92 -16 -190 -34z"/>
<path d="M665 1468 c-10 -30 -35 -122 -35 -128 0 -6 171 18 179 26 9 8 -45 67
-83 89 -49 29 -55 30 -61 13z"/>
<path d="M1530 1459 c-35 -20 -90 -75 -90 -89 0 -4 41 -14 90 -22 50 -8 90
-11 90 -7 0 18 -42 139 -48 139 -4 0 -23 -9 -42 -21z"/>
<path d="M810 1406 c19 -20 50 -38 68 -42 29 -6 32 -4 32 17 0 41 -15 52 -77
57 l-58 4 35 -36z m65 -1 c0 -11 -7 -21 -16 -23 -18 -3 -33 23 -23 39 10 17
39 5 39 -16z"/>
<path d="M1405 1426 c11 -8 16 -19 12 -30 -10 -25 -42 -15 -41 12 1 34 -24 26
-34 -10 -5 -18 -8 -35 -6 -37 11 -13 75 14 104 44 l34 35 -44 0 c-39 0 -42 -1
-25 -14z"/>
<path d="M1046 1302 l-77 -57 7 -125 c3 -69 8 -127 11 -130 2 -2 64 -5 138 -5
74 0 136 3 138 5 3 3 8 61 11 130 l7 125 -61 45 c-34 25 -69 51 -79 57 -15 11
-28 4 -95 -45z"/>
<path d="M715 1333 c-44 -9 -81 -16 -82 -17 -3 -3 84 -204 130 -306 17 -36 26
-47 26 -33 1 18 21 209 36 331 5 49 11 48 -110 25z"/>
<path d="M845 1328 c-7 -34 -35 -302 -34 -335 0 -21 19 9 71 111 69 137 70
140 58 180 -16 54 -27 66 -61 66 -22 0 -30 -6 -34 -22z"/>
<path d="M1334 1343 c-6 -5 -16 -29 -22 -55 l-12 -47 67 -136 c38 -74 70 -135
73 -135 3 0 -4 84 -15 188 l-20 187 -30 3 c-16 1 -35 -1 -41 -5z"/>
<path d="M1425 1313 c7 -49 35 -321 35 -342 1 -9 15 13 31 49 42 88 129 293
126 296 -3 2 -180 34 -190 34 -4 0 -5 -17 -2 -37z"/>
<path d="M335 1299 c-60 -4 -127 -7 -149 -8 -34 -1 -38 -3 -33 -23 3 -13 10
-48 17 -79 l11 -56 87 25 c48 13 147 41 219 61 73 21 135 40 139 43 3 4 0 16
-6 28 -12 23 -30 24 -285 9z"/>
<path d="M1629 1289 c-14 -28 -6 -34 71 -53 36 -9 133 -35 216 -59 l152 -44
16 75 c9 41 15 76 14 78 -4 3 -366 24 -420 24 -28 0 -40 -5 -49 -21z"/>
<path d="M599 1236 c-2 -3 -93 -29 -202 -59 -110 -31 -201 -58 -204 -61 -6 -5
24 -171 33 -188 2 -3 39 9 82 27 157 67 374 164 379 169 3 2 -6 30 -20 60 -18
39 -32 56 -45 56 -10 0 -21 -2 -23 -4z"/>
<path d="M1582 1183 c-27 -66 -36 -56 108 -118 58 -24 156 -67 218 -94 75 -33
114 -46 117 -38 8 25 35 157 35 170 0 9 -32 23 -87 40 -111 33 -348 97 -359
97 -5 0 -19 -25 -32 -57z"/>
<path d="M1296 1163 c-3 -21 -6 -70 -6 -108 l0 -70 72 -27 c40 -15 73 -26 74
-25 1 1 -29 62 -66 135 -67 132 -67 132 -74 95z"/>
<path d="M877 1061 c-36 -73 -63 -131 -59 -129 4 2 38 14 75 27 l67 25 -1 85
c-1 142 -7 141 -82 -8z"/>
<path d="M610 1071 c-47 -21 -150 -67 -230 -101 -80 -35 -146 -64 -147 -65 -5
-3 50 -263 58 -276 7 -11 79 47 207 168 7 7 65 59 128 114 63 56 114 103 114
105 0 6 -40 94 -42 94 -2 0 -41 -18 -88 -39z"/>
<path d="M1529 1063 l-20 -47 23 -22 c13 -12 112 -101 221 -199 140 -125 201
-174 207 -165 4 7 18 63 30 124 12 61 24 120 26 132 5 17 -3 24 -48 42 -29 11
-120 51 -203 87 -82 37 -165 73 -183 80 l-33 14 -20 -46z"/>
<path d="M1487 962 c-34 -80 -33 -88 44 -212 40 -63 97 -155 127 -205 31 -49
61 -96 67 -103 9 -10 34 4 118 69 59 44 107 82 107 84 0 2 -60 56 -132 121
-73 65 -135 121 -138 124 -3 3 -44 40 -91 82 l-86 78 -16 -38z"/>
<path d="M695 952 c-22 -20 -120 -109 -218 -196 -97 -87 -177 -160 -177 -161
0 -11 214 -165 221 -158 5 5 67 103 139 218 118 192 129 213 124 245 -7 39
-31 90 -42 90 -4 0 -25 -17 -47 -38z"/>
<path d="M878 937 l-78 -32 7 -55 c13 -111 10 -111 91 -6 64 84 87 128 65 125
-5 -1 -43 -15 -85 -32z"/>
<path d="M990 959 c0 -6 18 -18 40 -26 29 -12 39 -21 36 -32 -3 -9 8 -31 26
-50 l31 -35 33 39 c17 21 30 44 28 50 -3 6 13 19 36 28 70 27 48 36 -95 36
-85 0 -135 -4 -135 -10z"/>
<path d="M1280 954 c0 -10 32 -60 72 -112 80 -105 78 -105 91 8 l7 56 -77 29
c-42 17 -80 32 -85 33 -4 2 -8 -4 -8 -14z"/>
<path d="M915 839 c-91 -119 -90 -118 -68 -135 57 -45 57 -46 99 -27 65 29
164 97 164 112 0 8 -16 34 -36 57 -19 24 -33 48 -30 53 4 6 -42 31 -58 31 -1
0 -33 -41 -71 -91z"/>
<path d="M1228 919 c-15 -6 -25 -16 -22 -22 2 -7 -14 -30 -36 -52 -22 -21 -40
-46 -40 -55 1 -16 94 -78 169 -111 43 -19 43 -19 70 1 56 40 57 39 -26 148
-42 56 -79 102 -82 101 -3 0 -18 -5 -33 -10z"/>
<path d="M744 761 c-23 -36 -77 -124 -122 -196 -44 -72 -82 -135 -84 -142 -3
-11 195 -173 212 -173 4 0 10 8 13 17 2 10 28 103 57 207 l53 189 -32 26 c-25
21 -33 37 -40 79 -4 29 -10 54 -12 56 -2 2 -22 -26 -45 -63z"/>
<path d="M1456 823 c-3 -3 -6 -26 -6 -51 0 -38 -5 -49 -35 -77 l-36 -32 42
-149 c22 -82 48 -175 57 -207 11 -37 21 -56 29 -53 22 9 213 159 209 165 -6
11 -193 316 -223 363 -17 26 -33 45 -37 41z"/>
<path d="M1050 717 c-36 -24 -80 -49 -98 -57 l-33 -13 47 -48 48 -49 111 0
111 0 47 48 48 49 -40 18 c-23 10 -69 35 -103 56 -35 22 -65 39 -68 39 -3 0
-34 -19 -70 -43z"/>
<path d="M880 624 c-6 -14 -10 -29 -10 -34 0 -4 -20 -77 -44 -162 -24 -84 -46
-163 -49 -175 -4 -19 5 -28 58 -58 35 -19 66 -35 69 -35 7 0 11 26 36 237 l21
173 -32 40 c-18 22 -34 40 -36 40 -2 0 -8 -12 -13 -26z"/>
<path d="M1321 613 c-17 -20 -31 -44 -31 -53 1 -31 49 -393 54 -397 2 -3 34
12 71 32 47 27 64 42 61 54 -70 252 -110 388 -116 394 -4 5 -21 -9 -39 -30z"/>
<path d="M975 525 c-9 -40 -47 -376 -44 -379 22 -20 178 -96 197 -96 19 0 164
73 191 96 3 3 -35 337 -44 379 -4 19 -12 20 -150 20 -138 0 -146 -1 -150 -20z"/>
</g>
</svg>
