<?xml version="1.0" standalone="no"?>
<!DOCTYPE svg PUBLIC "-//W3C//DTD SVG 20010904//EN"
 "http://www.w3.org/TR/2001/REC-SVG-20010904/DTD/svg10.dtd">
<svg version="1.0" xmlns="http://www.w3.org/2000/svg"
 width="1080.000000pt" height="720.000000pt" viewBox="0 0 1080.000000 720.000000"
 preserveAspectRatio="xMidYMid meet">
<metadata>
Created by potrace 1.16, written by Peter Selinger 2001-2019
</metadata>
<g transform="translate(0.000000,720.000000) scale(0.100000,-0.100000)"
fill="#000000" stroke="none">
<path d="M5042 6701 c-51 -33 -74 -77 -69 -138 4 -61 37 -109 105 -157 25 -17
75 -53 110 -80 43 -32 69 -46 77 -40 14 11 89 59 166 108 136 86 160 237 47
306 -60 36 -167 19 -203 -33 -15 -21 -15 -21 -50 13 -30 29 -43 34 -92 37 -46
3 -65 0 -91 -16z"/>
<path d="M5707 6539 c-21 -5 -52 -16 -69 -25 -36 -19 -125 -99 -140 -128 -10
-18 -7 -17 26 4 91 55 141 74 214 78 66 4 76 2 98 -18 50 -48 40 -139 -18
-159 -37 -13 -88 9 -88 39 0 22 16 35 25 20 11 -18 41 -11 54 14 10 18 10 28
1 46 -10 19 -18 22 -57 17 -52 -6 -98 -44 -108 -88 -15 -67 62 -159 131 -159
44 1 108 34 134 70 25 35 38 118 26 164 -8 32 -60 93 -95 110 -38 19 -91 25
-134 15z"/>
<path d="M4697 6525 c-72 -25 -126 -100 -127 -175 0 -79 68 -161 146 -176 74
-14 154 60 154 141 0 51 -33 89 -91 107 -34 10 -42 9 -59 -7 -38 -34 -14 -83
34 -71 32 8 42 -18 16 -44 -26 -26 -74 -26 -100 0 -29 29 -27 100 3 135 48 56
170 40 289 -37 33 -22 63 -37 65 -34 3 3 -23 34 -58 69 -47 47 -79 69 -122 85
-66 25 -97 27 -150 7z"/>
<path d="M6653 6087 c-57 -109 -124 -162 -243 -193 -91 -23 -228 -14 -525 35
-132 22 -276 45 -320 52 -107 17 -477 17 -580 1 -44 -7 -204 -34 -355 -59
-244 -40 -287 -45 -385 -40 -66 3 -129 11 -157 22 -69 25 -142 94 -178 171
-17 35 -35 62 -40 59 -11 -7 -39 -166 -42 -241 -2 -36 2 -71 10 -86 19 -36 90
-78 130 -78 19 0 47 -9 62 -20 16 -11 59 -35 97 -53 l68 -32 295 0 c317 -1
321 -1 451 -59 105 -46 230 -157 296 -261 15 -25 30 -45 33 -45 3 0 24 29 47
63 91 135 211 228 363 284 73 26 81 27 245 24 459 -10 472 -8 586 64 30 19 67
35 82 35 41 0 105 36 128 73 18 28 20 45 16 132 -3 90 -30 215 -46 215 -3 0
-21 -28 -38 -63z"/>
<path d="M3830 5697 c0 -49 31 -184 65 -282 l35 -100 67 -2 c67 -2 69 -1 90
31 l21 33 -45 44 c-29 28 -60 76 -88 134 -42 89 -63 115 -117 150 -28 17 -28
17 -28 -8z"/>
<path d="M6670 5683 c-30 -26 -54 -61 -80 -117 -20 -45 -58 -104 -83 -132
l-46 -51 27 -33 c27 -32 29 -32 88 -25 l61 7 31 96 c40 127 41 128 56 216 15
90 10 94 -54 39z"/>
<path d="M4020 5655 c0 -4 17 -39 37 -79 44 -84 154 -199 234 -245 77 -44 119
-47 264 -21 134 25 136 25 300 -19 44 -12 108 -25 141 -28 56 -5 63 -4 73 15
15 28 5 66 -30 122 -54 86 -154 143 -287 162 -75 11 -90 10 -189 -13 -71 -16
-139 -24 -198 -24 -87 0 -94 2 -189 48 -54 26 -111 56 -127 68 -16 11 -29 17
-29 14z"/>
<path d="M6510 5640 c-14 -10 -68 -40 -120 -66 -119 -61 -184 -68 -347 -34
-166 34 -288 28 -386 -22 -110 -55 -192 -185 -149 -238 18 -22 20 -23 102 -11
46 7 111 21 144 32 94 30 160 33 261 14 182 -34 240 -17 369 106 55 52 85 91
116 150 23 44 40 82 38 84 -1 2 -14 -5 -28 -15z"/>
<path d="M7124 5499 c-18 -5 -46 -25 -63 -44 -63 -72 -34 -163 96 -299 l82
-87 41 21 c22 11 73 32 112 46 83 30 121 56 149 100 39 64 14 155 -52 189 -43
23 -113 21 -146 -3 l-27 -19 -20 30 c-41 60 -107 85 -172 66z"/>
<path d="M3270 5377 c-14 -7 -36 -29 -49 -50 -21 -32 -26 -35 -40 -23 -64 55
-178 30 -215 -49 -46 -95 15 -184 158 -231 28 -9 73 -28 100 -41 l49 -25 81
87 c100 107 126 152 126 218 0 44 -4 54 -39 88 -35 36 -43 39 -92 39 -30 0
-65 -6 -79 -13z"/>
<path d="M4299 5217 c-73 -100 -99 -181 -99 -307 0 -184 74 -317 233 -421 60
-39 163 -69 234 -69 289 1 519 276 473 566 -11 69 -57 183 -87 216 -14 16 -93
27 -93 13 0 -3 15 -26 34 -52 72 -101 96 -214 72 -332 -19 -89 -54 -155 -117
-219 -195 -195 -517 -137 -642 117 -31 63 -32 71 -32 186 0 111 2 124 28 176
15 31 45 77 68 102 l40 46 -28 7 c-15 3 -34 7 -41 10 -7 2 -26 -16 -43 -39z"/>
<path d="M6198 5253 c-16 -2 -28 -6 -28 -8 0 -2 22 -34 50 -70 67 -89 94 -175
88 -288 -6 -110 -35 -182 -103 -256 -164 -176 -412 -183 -579 -16 -151 151
-163 387 -29 563 14 18 23 35 21 37 -2 2 -20 5 -41 7 -43 2 -51 -6 -97 -98
-90 -182 -47 -422 101 -565 238 -230 611 -161 755 138 35 71 38 86 42 184 5
121 -10 192 -60 274 -31 51 -77 106 -87 104 -3 -1 -18 -4 -33 -6z"/>
<path d="M6945 5185 c-67 -34 -96 -107 -69 -174 26 -67 89 -90 153 -56 32 16
41 33 41 79 0 64 -81 104 -88 43 -3 -22 1 -27 18 -27 30 0 20 -24 -12 -28 -31
-4 -58 21 -58 52 0 28 49 76 78 76 45 0 127 -96 158 -185 13 -38 16 11 4 69
-26 127 -132 198 -225 151z"/>
<path d="M5850 5183 c-8 -2 -21 -7 -29 -9 -9 -3 -2 -12 20 -27 19 -13 40 -35
47 -50 32 -65 -23 -147 -98 -147 -49 0 -100 46 -100 91 0 46 -18 34 -50 -33
-40 -85 -42 -196 -6 -275 57 -123 156 -187 286 -187 128 -1 232 67 284 185 36
80 39 191 6 268 -31 71 -123 155 -192 176 -50 14 -137 19 -168 8z"/>
<path d="M4576 5164 c-53 -19 -53 -21 -13 -37 45 -19 67 -52 67 -102 -1 -43
-11 -61 -50 -88 -53 -37 -114 -13 -145 57 l-21 49 -23 -54 c-20 -45 -23 -65
-19 -138 5 -99 26 -149 88 -211 58 -58 113 -82 196 -88 96 -6 158 15 223 76
95 89 127 223 84 347 -26 74 -122 168 -193 189 -65 19 -142 20 -194 0z"/>
<path d="M3828 5078 c-34 -51 -109 -211 -132 -280 -14 -40 -32 -129 -40 -198
-9 -69 -22 -148 -30 -175 -9 -27 -14 -50 -13 -51 1 -2 22 10 46 27 64 42 114
54 182 41 31 -6 76 -22 99 -37 23 -15 43 -25 45 -23 1 2 5 29 7 60 l5 58 -36
11 c-104 34 -137 109 -91 205 l21 41 -35 35 c-64 64 -69 157 -11 226 29 34 30
41 12 66 -13 17 -14 17 -29 -6z"/>
<path d="M3460 5083 c-61 -23 -112 -99 -124 -185 -8 -56 4 -63 22 -14 30 82
101 156 150 156 51 0 94 -84 60 -118 -17 -17 -65 -15 -72 3 -4 10 1 15 15 15
16 0 20 5 17 28 -7 65 -88 16 -88 -53 0 -25 8 -40 31 -59 104 -88 228 53 151
172 -29 45 -113 73 -162 55z"/>
<path d="M6710 5069 c0 -6 11 -24 25 -41 58 -69 53 -162 -11 -226 l-35 -35 21
-41 c31 -65 27 -116 -14 -157 -18 -19 -52 -41 -75 -48 -31 -9 -41 -16 -37 -27
3 -9 6 -35 6 -60 l0 -44 58 31 c85 44 154 49 227 15 l58 -26 -7 32 c-4 18 -14
83 -21 143 -8 61 -20 133 -26 160 -29 124 -169 393 -169 324z"/>
<path d="M7346 5066 c-78 -29 -155 -137 -171 -241 -5 -35 -4 -37 7 -21 7 11
31 46 53 79 74 111 182 159 233 104 48 -51 45 -115 -8 -137 -34 -14 -70 1 -70
29 0 14 6 17 25 13 22 -4 25 -1 25 25 0 60 -41 69 -87 21 -41 -43 -49 -83 -25
-127 43 -79 142 -90 207 -24 38 39 50 82 42 144 -13 101 -133 171 -231 135z"/>
<path d="M3018 4939 c-112 -58 -121 -225 -16 -289 63 -38 146 -14 181 53 16
31 17 42 8 70 -13 38 -45 71 -78 81 -31 10 -60 -33 -43 -64 8 -15 17 -19 32
-15 15 5 19 3 16 -10 -8 -44 -75 -44 -104 0 -13 20 -14 30 -4 59 13 42 53 76
87 76 58 0 142 -69 202 -165 27 -44 31 -47 31 -24 0 74 -73 195 -140 229 -50
26 -123 26 -172 -1z"/>
<path d="M5205 4643 c-96 -14 -167 -58 -201 -124 -20 -40 -18 -115 6 -165 35
-72 248 -314 277 -314 19 0 184 185 226 252 45 75 61 127 52 177 -12 73 -70
136 -145 159 -41 13 -172 22 -215 15z"/>
<path d="M6737 4376 c-52 -19 -105 -62 -124 -101 -14 -29 -14 -37 2 -91 9 -32
32 -83 51 -112 24 -36 30 -54 22 -56 -159 -48 -183 -60 -250 -124 -74 -70
-142 -170 -215 -319 -50 -99 -58 -124 -61 -184 -5 -88 3 -99 74 -99 49 0 55 3
81 37 43 57 166 149 257 193 l83 40 7 59 c14 122 125 292 296 453 l98 93 -38
65 c-21 36 -48 78 -60 93 -48 60 -140 82 -223 53z"/>
<path d="M3664 4350 c-58 -33 -110 -89 -145 -156 l-24 -45 40 -32 c192 -153
348 -371 363 -510 7 -60 8 -63 47 -82 96 -47 178 -99 239 -151 62 -53 70 -57
130 -61 61 -5 65 -4 81 21 38 58 -2 188 -118 386 -101 171 -219 271 -350 295
-20 4 -40 11 -43 16 -3 5 13 39 36 76 33 55 40 76 40 119 0 64 -21 93 -92 128
-73 36 -137 35 -204 -4z"/>
<path d="M6537 4314 c-4 -5 -38 -13 -75 -19 -62 -10 -67 -13 -72 -41 -10 -46
-38 -81 -84 -104 -47 -22 -75 -25 -125 -10 -32 9 -36 7 -80 -40 -33 -35 -56
-50 -84 -55 -46 -9 -113 14 -147 50 -29 31 -31 31 -76 0 -54 -37 -127 -35
-181 4 -22 16 -45 43 -53 60 l-13 31 -72 -77 c-39 -43 -93 -103 -120 -133 -27
-30 -52 -57 -57 -58 -15 -6 -81 54 -172 157 l-90 100 -20 -34 c-33 -54 -72
-78 -132 -83 -46 -4 -60 -1 -95 22 -44 30 -34 32 -108 -21 -18 -13 -41 -17
-89 -16 -71 2 -105 18 -130 64 -15 26 -20 28 -52 22 -113 -24 -201 21 -220
112 -5 26 -11 30 -65 41 -33 7 -70 15 -82 19 -22 7 -23 4 -23 -37 0 -24 -7
-70 -15 -101 -8 -32 -15 -64 -15 -70 0 -7 29 -25 65 -41 112 -49 205 -153 205
-228 0 -19 15 -41 51 -75 28 -26 75 -85 104 -129 61 -92 98 -127 170 -160 74
-34 152 -41 232 -19 62 17 75 26 160 108 51 50 94 88 96 86 45 -71 84 -120
112 -142 42 -34 95 -57 129 -57 36 0 132 83 167 146 17 30 33 54 35 54 2 0 17
-26 33 -59 17 -32 44 -70 60 -84 50 -42 136 -69 219 -69 68 1 82 5 175 51 101
49 103 51 157 132 30 45 76 101 103 124 30 28 47 51 47 67 0 37 44 119 85 162
21 21 73 55 114 74 42 20 77 36 79 37 1 2 -4 29 -12 61 -8 33 -19 88 -23 122
-4 35 -12 60 -16 56z"/>
<path d="M3470 4111 c-26 -49 -61 -170 -80 -275 -52 -290 0 -531 182 -833 27
-46 53 -83 58 -83 5 0 17 15 27 33 15 26 18 55 17 150 l-1 119 44 -7 c29 -4
49 -2 59 6 24 20 17 105 -15 184 l-29 70 35 6 c45 8 53 21 53 90 0 140 -88
304 -261 483 -75 79 -76 79 -89 57z"/>
<path d="M6985 4048 c-99 -107 -190 -244 -215 -326 -46 -147 -35 -222 31 -222
35 0 36 9 -7 -113 -23 -64 -26 -84 -18 -115 9 -35 11 -37 49 -36 22 0 47 2 55
5 12 3 14 -12 11 -98 -3 -109 17 -203 44 -203 18 0 108 150 156 262 22 50 52
134 66 187 51 187 30 473 -48 665 -16 39 -29 72 -29 74 0 14 -31 -12 -95 -80z"/>
<path d="M6559 3469 c-57 -39 -120 -86 -140 -106 -84 -80 -118 -203 -59 -211
42 -6 41 -16 -1 -67 -54 -65 -71 -100 -67 -138 3 -31 4 -32 57 -35 45 -3 52
-6 47 -20 -3 -9 -14 -42 -25 -72 -12 -32 -20 -80 -21 -116 0 -54 4 -66 28 -92
32 -34 112 -62 178 -62 40 0 46 4 155 118 63 65 136 143 162 174 l48 56 -27
29 c-38 40 -65 106 -71 174 l-6 57 -43 11 c-58 15 -79 48 -78 121 1 33 10 75
22 103 l21 48 -35 49 c-20 28 -37 50 -38 50 -1 0 -49 -32 -107 -71z"/>
<path d="M3859 3469 l-31 -40 21 -55 c12 -33 21 -79 21 -111 0 -47 -4 -59 -29
-84 -19 -19 -40 -29 -59 -29 -28 0 -29 -2 -36 -61 -7 -67 -35 -142 -68 -176
-17 -19 -19 -27 -11 -46 6 -13 80 -94 164 -181 l153 -158 55 7 c67 8 129 34
156 65 29 32 27 146 -3 214 -31 69 -29 76 21 76 90 0 89 54 -4 176 -22 28 -39
54 -39 57 0 4 10 7 23 7 71 0 60 91 -22 177 -33 34 -161 128 -253 186 -27 16
-27 16 -59 -24z"/>
<path d="M4986 3391 c-56 -57 -58 -61 -51 -98 29 -155 142 -246 222 -179 35
30 79 108 88 158 7 36 6 37 -39 57 -25 11 -70 43 -99 70 -30 28 -56 51 -58 51
-3 0 -31 -27 -63 -59z"/>
<path d="M5446 3389 c-33 -27 -79 -56 -103 -65 -48 -19 -50 -26 -28 -102 29
-96 124 -157 209 -134 74 21 154 109 171 189 6 31 4 33 -40 54 -25 12 -68 41
-94 65 -27 24 -51 44 -52 43 -2 0 -31 -23 -63 -50z"/>
<path d="M6061 3406 c-6 -7 -44 -30 -84 -50 -59 -30 -87 -38 -154 -43 -62 -4
-83 -10 -83 -20 0 -40 66 -116 129 -148 40 -20 107 -16 145 8 37 25 65 94 72
179 7 76 -2 102 -25 74z"/>
<path d="M4480 3403 c1 -27 33 -140 50 -172 23 -46 67 -85 114 -101 40 -13 82
1 141 45 33 26 95 109 95 128 0 6 -18 7 -42 4 -57 -8 -183 10 -235 33 -24 10
-58 30 -76 44 -35 27 -47 32 -47 19z"/>
<path d="M4270 3283 c1 -4 7 -19 15 -33 19 -33 19 -100 0 -127 -15 -21 -13
-25 19 -67 19 -25 40 -62 47 -81 21 -58 71 -43 99 30 16 41 -12 151 -50 196
-27 34 -130 99 -130 82z"/>
<path d="M6212 3220 c-23 -16 -49 -41 -57 -54 -25 -37 -47 -135 -41 -172 9
-44 42 -84 72 -84 20 0 24 5 24 30 0 41 23 93 61 142 24 30 29 42 19 48 -7 4
-15 31 -18 59 -2 28 -8 53 -12 56 -4 3 -26 -9 -48 -25z"/>
<path d="M4517 3078 c24 -126 120 -265 207 -298 42 -16 107 -12 154 10 38 17
182 144 182 159 0 3 -18 14 -40 24 -22 10 -63 45 -92 78 -51 59 -51 59 -72 40
-42 -38 -103 -61 -164 -61 -52 0 -65 4 -116 40 -31 22 -59 40 -61 40 -3 0 -2
-15 2 -32z"/>
<path d="M5681 3071 c-23 -44 -64 -81 -110 -100 -37 -16 -37 -23 -10 -96 61
-163 222 -186 373 -54 70 61 106 123 106 181 0 26 -2 48 -4 48 -2 0 -20 -7
-39 -15 -75 -31 -170 -12 -251 50 -18 14 -36 25 -39 25 -4 0 -15 -17 -26 -39z"/>
<path d="M5224 3042 c-18 -21 -53 -49 -78 -63 -25 -13 -46 -29 -46 -36 0 -7 9
-37 21 -67 15 -41 34 -68 72 -101 45 -39 58 -45 97 -45 56 0 107 32 148 93 34
49 64 116 57 127 -3 4 -26 11 -52 15 -63 9 -92 25 -136 74 -20 23 -40 41 -44
41 -5 0 -22 -17 -39 -38z"/>
<path d="M4512 2913 c-7 -12 -28 -31 -47 -43 -33 -21 -35 -24 -29 -63 4 -23
20 -84 36 -136 26 -81 36 -100 82 -147 50 -51 55 -54 103 -54 43 0 59 6 94 33
47 35 109 111 109 131 0 8 -18 16 -45 19 -64 9 -150 54 -192 100 -19 22 -50
72 -68 111 -29 65 -33 69 -43 49z"/>
<path d="M6021 2835 c-55 -103 -139 -170 -241 -191 -30 -6 -54 -14 -52 -17 1
-4 2 -13 2 -21 0 -19 87 -114 121 -131 76 -40 157 0 207 100 24 48 72 203 72
232 0 17 -62 73 -81 73 -2 0 -15 -20 -28 -45z"/>
<path d="M6221 2848 c-21 -63 -41 -189 -41 -255 0 -119 36 -189 102 -200 52
-8 162 29 223 74 l50 38 -84 5 c-80 6 -85 7 -117 42 -47 52 -68 131 -61 229 5
67 4 78 -11 82 -9 3 -24 8 -33 12 -13 5 -20 -2 -28 -27z"/>
<path d="M4301 2851 c-33 -16 -33 -16 -27 -72 7 -69 -9 -174 -33 -214 -29 -51
-76 -75 -144 -75 -54 0 -58 -1 -46 -17 28 -33 131 -73 191 -73 51 0 60 3 88
33 60 63 71 158 40 339 -16 88 -25 99 -69 79z"/>
<path d="M4979 2703 c-72 -50 -74 -60 -38 -142 72 -164 177 -176 270 -32 16
25 29 50 29 57 0 7 -21 22 -47 35 -27 13 -71 46 -99 75 l-51 52 -64 -45z"/>
<path d="M5451 2679 c-30 -27 -78 -58 -105 -68 -59 -22 -63 -41 -19 -103 47
-69 127 -101 195 -79 46 15 106 76 134 136 28 60 30 75 7 75 -27 1 -105 38
-133 65 l-25 23 -54 -49z"/>
<path d="M6845 2568 c-36 -13 -82 -53 -101 -90 -54 -103 57 -233 146 -171 27
19 51 47 62 75 8 18 -21 58 -41 58 -19 0 -42 -32 -36 -51 4 -12 2 -19 -7 -19
-43 0 -51 68 -13 105 30 31 53 31 96 2 28 -19 35 -30 37 -65 9 -123 -159 -314
-363 -412 -110 -54 -199 -73 -303 -67 -142 8 -242 73 -301 194 -13 26 -25 50
-27 52 -3 3 -26 -13 -91 -65 -26 -21 -26 -22 -11 -46 59 -90 192 -169 329
-194 69 -13 98 -14 183 -4 179 21 263 58 501 223 180 125 238 152 301 142 99
-14 146 -91 90 -144 -22 -21 -29 -23 -51 -13 -14 6 -25 17 -25 24 0 7 -5 20
-10 28 -9 13 -11 13 -20 0 -17 -26 -12 -85 10 -105 39 -36 138 -17 177 34 11
14 14 14 23 1 12 -18 5 -67 -13 -88 -6 -8 -25 -23 -41 -33 l-28 -17 22 -12
c44 -24 109 9 141 72 29 56 24 149 -10 197 -52 73 -154 121 -255 121 -52 0
-128 -29 -186 -70 -15 -11 -30 -20 -33 -20 -3 0 8 27 25 60 68 131 39 247 -75
295 -41 17 -60 18 -102 3z"/>
<path d="M6089 2468 c-90 -133 -225 -148 -367 -40 -18 14 -34 23 -36 21 -2 -2
-13 -23 -25 -46 -12 -24 -34 -52 -51 -64 l-29 -22 22 -28 c12 -15 25 -28 28
-28 3 -1 11 17 18 39 14 48 50 75 86 66 34 -9 81 -83 96 -152 7 -30 17 -54 23
-54 24 0 109 59 190 130 46 41 93 82 103 90 19 15 19 17 -2 78 l-20 62 -36
-52z"/>
<path d="M4413 2452 c-21 -52 -22 -58 -6 -67 9 -5 60 -49 115 -97 87 -78 160
-128 186 -128 5 0 17 29 26 64 43 159 128 202 178 90 l20 -47 26 26 25 25 -59
65 -59 65 -30 -22 c-56 -43 -99 -59 -155 -60 -47 0 -63 5 -110 36 -30 20 -71
53 -89 72 -19 20 -37 36 -40 36 -4 0 -16 -26 -28 -58z"/>
<path d="M7304 2423 c-10 -16 -27 -44 -40 -64 l-22 -36 41 -10 c23 -6 57 -17
74 -24 42 -17 62 -2 45 35 -10 22 -8 25 19 36 34 15 51 40 39 60 -6 9 -22 11
-58 7 -39 -4 -52 -3 -56 9 -8 22 -24 17 -42 -13z"/>
<path d="M3836 2413 c-33 -5 -32 -19 4 -116 36 -96 93 -147 162 -147 63 0 67
12 30 84 -22 42 -47 73 -73 91 -21 15 -39 29 -39 31 0 30 116 -79 130 -121 15
-45 30 -45 30 0 0 42 -21 88 -59 128 -48 53 -90 64 -185 50z"/>
<path d="M5202 2374 c-39 -41 -90 -74 -114 -74 -23 0 -30 -14 -22 -45 l6 -26
35 36 c19 19 38 35 44 35 18 0 55 -49 67 -88 24 -79 9 -157 -41 -217 -41 -50
-75 -46 -101 13 -11 23 -22 42 -26 42 -4 0 -12 -11 -18 -25 -12 -26 -49 -41
-80 -31 -23 8 -42 46 -42 86 0 17 -3 30 -7 30 -3 0 -21 -18 -40 -40 -19 -22
-43 -40 -53 -40 -10 0 -32 16 -50 36 -17 20 -33 34 -35 32 -2 -2 -20 -30 -39
-63 -42 -68 -46 -107 -14 -129 36 -26 73 -21 239 31 13 4 17 -6 22 -52 3 -33
13 -65 23 -76 22 -25 70 -24 125 1 l44 20 22 -28 c22 -27 25 -27 158 -30 l135
-4 12 29 c7 15 13 30 15 32 1 2 23 -2 47 -9 79 -22 116 5 116 85 0 19 3 36 8
39 4 2 34 -4 66 -15 73 -25 173 -23 190 4 9 14 4 30 -23 82 -19 36 -38 65 -41
65 -4 0 -17 -11 -30 -25 -32 -34 -56 -31 -94 10 -18 19 -35 35 -38 35 -3 0 -8
-18 -12 -40 -7 -45 -36 -80 -65 -80 -10 0 -32 15 -48 33 l-28 33 -20 -40 c-28
-56 -48 -65 -82 -40 -81 61 -98 215 -32 298 27 34 44 33 81 -4 17 -17 32 -29
34 -27 2 2 7 17 10 34 l6 30 -60 5 c-71 7 -118 28 -166 74 -19 19 -39 34 -43
34 -4 0 -23 -16 -41 -36z"/>
<path d="M6300 2243 c-14 -2 -28 -8 -32 -11 -3 -4 8 -50 25 -102 29 -85 37
-98 75 -127 49 -37 118 -46 129 -18 10 28 -29 109 -74 153 -24 23 -39 42 -35
42 18 0 100 -97 111 -133 16 -49 35 -37 28 19 -10 94 -81 174 -159 179 -24 2
-54 1 -68 -2z"/>
<path d="M3309 2175 c-60 -19 -141 -92 -170 -152 -20 -42 -21 -50 -10 -92 17
-66 36 -89 76 -97 44 -8 81 14 101 62 12 29 12 40 2 62 -15 31 -58 41 -77 18
-20 -24 -6 -48 24 -40 22 5 25 3 25 -20 0 -19 -6 -27 -27 -32 -40 -10 -67 27
-60 85 5 49 29 86 77 119 49 33 157 31 246 -4 74 -30 167 -109 199 -169 11
-19 25 -34 31 -33 6 2 30 25 54 52 23 27 66 70 96 94 30 24 51 48 48 53 -3 5
-25 9 -49 9 -64 0 -178 24 -285 61 -113 38 -228 47 -301 24z"/>
<path d="M4259 2175 c-132 -33 -247 -102 -367 -219 -76 -73 -152 -164 -152
-180 0 -3 20 -6 44 -6 42 0 46 3 101 68 108 127 229 207 353 233 98 20 214
-11 312 -85 l35 -27 9 23 c4 13 20 47 33 75 14 29 23 59 20 67 -3 8 -32 24
-64 37 -73 28 -239 36 -324 14z"/>
<path d="M4196 2012 c-13 -21 -46 -161 -46 -194 l0 -38 125 0 125 0 0 28 c0
33 -43 129 -73 160 -40 43 -116 68 -131 44z"/>
<path d="M4118 1972 c-56 -62 -101 -202 -64 -202 7 0 28 3 45 6 27 6 31 10 31
41 0 19 7 65 16 104 9 38 14 74 12 80 -2 6 -20 -7 -40 -29z"/>
<path d="M6770 1970 c-14 -12 -46 -32 -72 -45 l-46 -24 63 -66 c71 -73 105
-85 105 -36 0 29 2 30 53 33 46 3 52 6 55 26 5 32 -14 51 -62 63 -36 9 -42 14
-41 37 0 34 -22 38 -55 12z"/>
<path d="M3463 1903 c-4 -9 1 -29 10 -45 23 -40 22 -44 -15 -59 -31 -13 -24
-14 87 -17 l120 -3 27 33 c35 42 35 48 -3 48 -17 0 -64 14 -106 30 -85 34
-111 37 -120 13z"/>
<path d="M6530 1870 c-30 -10 -75 -22 -100 -27 l-45 -8 40 -28 c35 -24 49 -27
124 -27 l84 0 -7 38 c-3 20 -6 45 -6 55 0 21 -18 21 -90 -3z"/>
<path d="M2976 1380 c-30 -36 -40 -81 -34 -156 6 -68 44 -127 111 -168 43 -26
56 -29 135 -29 160 -1 256 59 338 209 25 46 48 84 51 84 3 0 2 -27 -2 -59 -9
-75 15 -173 54 -221 69 -85 192 -105 268 -44 125 102 106 295 -34 333 -50 14
-102 -5 -126 -47 -26 -45 -35 -91 -25 -129 7 -29 13 -33 41 -33 54 0 74 35 40
72 -15 17 -15 20 -3 28 24 15 37 12 59 -16 43 -55 13 -137 -55 -150 -54 -10
-93 12 -117 65 -17 40 -19 60 -14 169 l5 123 -57 -3 c-55 -3 -56 -4 -74 -43
-40 -86 -100 -166 -143 -191 -62 -36 -150 -44 -184 -16 -20 17 -25 29 -24 66
2 78 45 99 103 50 l31 -26 0 42 c0 116 -158 122 -210 7 -11 -23 -20 -52 -20
-64 0 -30 -14 -29 -39 3 -15 19 -21 41 -21 74 0 33 6 55 21 74 l20 26 -34 0
c-27 0 -41 -7 -61 -30z"/>
<path d="M4756 1363 c79 -137 223 -272 369 -344 44 -22 181 -73 305 -115 256
-85 315 -117 349 -187 34 -70 37 -107 11 -140 -18 -23 -29 -27 -69 -27 -72 0
-91 32 -50 84 26 33 20 40 -24 32 -126 -24 -68 -206 66 -206 45 0 49 -19 11
-49 -33 -26 -104 -28 -139 -5 -24 16 -25 16 -25 -8 0 -14 13 -37 30 -53 24
-23 41 -30 89 -33 71 -5 121 10 167 51 54 47 74 95 74 176 0 86 -26 161 -77
220 -44 52 -89 81 -171 111 -77 28 -86 40 -30 40 66 0 159 27 198 59 93 73
106 206 28 277 -62 57 -172 73 -236 34 -68 -42 -94 -139 -52 -193 49 -62 200
-60 200 2 0 38 -64 68 -76 36 -8 -20 -30 -19 -38 1 -10 27 20 62 61 70 50 9
84 -11 102 -62 27 -78 -20 -125 -149 -145 -188 -29 -418 34 -617 169 -61 42
-190 172 -220 223 -15 26 -23 29 -66 29 l-49 0 28 -47z"/>
<path d="M5127 1392 c-60 -66 -62 -222 -3 -222 12 0 49 18 83 40 61 38 107 90
144 163 l19 37 -113 0 c-97 0 -116 -3 -130 -18z"/>
<path d="M5370 1375 c-19 -58 -84 -134 -157 -183 l-68 -47 33 -3 c76 -7 191
60 241 142 12 19 25 54 30 80 l8 46 -38 0 c-34 0 -38 -3 -49 -35z"/>
<path d="M4826 1073 c-4 -64 -16 -150 -27 -191 -27 -107 -25 -213 5 -277 26
-58 96 -124 151 -143 82 -30 185 18 185 85 -1 68 -87 108 -141 64 -21 -16 -22
-22 -11 -45 7 -15 20 -26 31 -26 23 0 36 16 21 25 -17 10 -11 35 8 35 43 0 56
-49 20 -74 -48 -34 -152 -3 -187 55 -41 68 -34 186 19 289 21 42 91 119 125
139 23 13 28 7 -84 94 -30 23 -66 52 -81 64 l-27 22 -7 -116z"/>
<path d="M3361 1015 c-18 -8 -43 -15 -55 -15 -11 0 -38 -5 -58 -11 -45 -12
-51 -38 -13 -63 l24 -16 -25 -37 c-52 -77 2 -114 73 -49 34 30 40 33 49 19 6
-10 17 -14 27 -10 14 5 17 21 17 86 0 44 3 86 6 95 7 19 -1 20 -45 1z"/>
<path d="M5070 972 c0 -20 -9 -67 -21 -103 -12 -37 -19 -74 -16 -83 8 -21 45
-21 68 0 16 15 21 12 63 -32 43 -45 46 -46 68 -32 31 20 35 70 10 112 -19 32
-19 32 2 42 11 5 21 18 21 29 0 16 -14 25 -62 41 -34 12 -78 31 -98 42 l-35
21 0 -37z"/>
<path d="M5953 753 c-35 -2 -63 -8 -63 -14 0 -5 9 -27 20 -49 11 -22 20 -48
20 -58 0 -11 8 -30 19 -43 16 -20 21 -21 35 -10 9 7 16 20 16 27 0 18 5 18 57
-2 23 -9 49 -14 58 -11 27 11 18 54 -19 84 -29 22 -34 32 -29 55 5 26 3 28
-23 26 -16 -1 -57 -3 -91 -5z"/>
</g>
</svg>
