<?xml version="1.0" standalone="no"?>
<!DOCTYPE svg PUBLIC "-//W3C//DTD SVG 20010904//EN"
 "http://www.w3.org/TR/2001/REC-SVG-20010904/DTD/svg10.dtd">
<svg version="1.0" xmlns="http://www.w3.org/2000/svg"
 width="1300.000000pt" height="1300.000000pt" viewBox="0 0 1300.000000 1300.000000"
 preserveAspectRatio="xMidYMid meet">

<g transform="translate(0.000000,1300.000000) scale(0.100000,-0.100000)"
fill="#000000" stroke="none">
<path d="M1470 11213 c-34 -131 -67 -257 -73 -279 -11 -44 -9 -51 94 -429 15
-55 45 -168 68 -251 22 -82 46 -167 53 -187 13 -36 50 -76 494 -527 l162 -165
30 -90 c27 -82 229 -703 254 -783 9 -31 7 -38 -47 -115 -31 -45 -119 -172
-195 -282 -76 -110 -178 -256 -225 -325 -47 -69 -120 -174 -161 -233 -41 -59
-72 -113 -68 -119 4 -6 3 -8 -3 -5 -8 5 -256 -338 -296 -409 -5 -8 16 -6 61 6
358 95 498 133 505 137 4 2 -2 -15 -13 -39 -11 -24 -61 -142 -111 -263 -50
-121 -121 -290 -156 -375 -36 -85 -75 -180 -88 -210 -12 -30 -75 -181 -140
-335 -140 -334 -149 -359 -132 -352 6 3 59 27 117 53 280 125 374 163 380 154
4 -6 12 -106 18 -223 26 -475 75 -1282 78 -1286 5 -6 40 23 333 277 160 139
295 251 300 248 5 -3 41 -48 80 -98 39 -51 109 -142 156 -203 47 -60 117 -150
155 -200 133 -172 289 -372 418 -538 71 -90 94 -132 128 -227 12 -36 92 -245
177 -465 l154 -400 109 -58 c60 -32 183 -97 274 -144 91 -47 188 -98 215 -113
28 -15 159 -85 293 -154 133 -70 242 -129 242 -131 0 -2 -39 -119 -86 -260
-47 -141 -83 -259 -80 -262 2 -3 81 32 175 76 94 45 173 81 175 81 2 0 55 24
117 54 l113 55 51 -37 c27 -20 84 -61 125 -92 41 -31 80 -59 86 -63 6 -4 43
18 83 48 39 30 75 55 81 55 9 0 254 -69 435 -122 38 -11 86 -21 105 -23 20 -2
113 20 220 50 102 29 222 63 267 75 l83 22 47 -39 c101 -84 82 -86 228 22 71
52 132 95 137 95 5 0 6 6 2 13 -4 6 1 5 12 -4 16 -14 208 -109 219 -109 3 0
53 -23 112 -51 170 -81 236 -110 240 -105 3 2 -34 120 -81 262 -47 142 -86
259 -86 260 0 2 63 35 370 197 52 27 131 69 175 92 44 23 123 65 175 92 137
72 372 196 394 208 10 6 33 50 53 100 19 50 102 265 184 479 82 213 156 400
163 415 8 14 91 125 185 246 94 121 226 291 294 379 67 87 136 175 152 196 17
21 79 101 139 179 60 78 113 144 117 147 5 3 146 -114 314 -261 169 -146 310
-265 314 -265 5 0 11 57 15 128 4 70 11 190 16 267 5 77 21 343 35 590 24 429
32 535 40 535 3 0 310 -135 412 -181 55 -25 93 -39 93 -35 0 5 -367 886 -594
1424 -31 74 -56 138 -56 143 0 5 10 4 23 -1 12 -5 99 -30 192 -54 94 -25 212
-56 263 -70 57 -15 90 -20 85 -13 -10 17 -144 213 -243 355 -184 266 -270 390
-400 578 -74 107 -186 268 -247 357 -62 88 -113 164 -113 168 0 7 50 162 187
584 36 110 72 223 81 250 8 28 20 57 26 66 6 9 153 161 326 338 224 229 319
332 328 358 7 20 31 105 53 187 23 83 54 198 70 256 104 384 103 379 89 434
-11 45 -69 266 -116 444 -10 34 -21 62 -26 62 -7 0 -329 -145 -533 -240 -22
-10 -174 -80 -338 -154 l-297 -136 -138 -20 c-75 -12 -229 -34 -342 -51 -113
-16 -313 -45 -445 -65 -385 -57 -324 -61 -591 44 -231 92 -763 301 -994 392
-146 57 -93 51 -790 90 l-505 28 -567 -34 -568 -33 -87 -35 c-49 -19 -140 -54
-203 -79 -63 -25 -225 -88 -360 -141 -135 -53 -326 -128 -425 -167 -99 -38
-201 -79 -227 -91 -55 -24 -80 -23 -348 17 -96 14 -191 28 -210 30 -19 2 -62
8 -95 14 -33 6 -139 22 -235 35 -474 68 -426 57 -636 152 -353 161 -409 186
-454 206 -25 11 -152 69 -283 129 -130 60 -241 109 -246 109 -4 0 -36 -107
-71 -237z m125 137 c6 -9 243 -206 296 -245 15 -11 69 -56 121 -100 53 -44
202 -168 333 -275 l237 -195 52 3 c28 2 128 12 221 23 94 10 260 28 370 39
110 11 303 31 430 44 126 14 231 24 232 22 2 -2 -281 -225 -546 -431 -170
-132 -227 -176 -416 -325 -108 -85 -222 -175 -254 -200 -135 -105 -269 -210
-317 -249 l-52 -41 -268 277 c-148 152 -288 294 -312 316 -46 44 -54 66 -127
337 -48 181 -87 324 -120 443 l-27 98 57 217 c32 119 60 225 63 235 5 19 17
22 27 7z m9900 -243 l57 -216 -42 -153 c-23 -84 -57 -209 -75 -278 -19 -69
-50 -183 -69 -254 -20 -70 -36 -130 -36 -132 0 -3 -113 -121 -250 -262 -138
-141 -248 -262 -246 -269 3 -7 0 -10 -7 -7 -7 2 -39 -22 -71 -55 l-58 -59
-156 122 c-85 66 -181 141 -213 166 -32 25 -178 140 -325 255 -147 116 -293
230 -325 255 -260 202 -568 444 -566 446 4 3 469 -45 1122 -115 l179 -19 46
37 c25 21 128 106 230 190 102 84 277 228 390 321 360 297 343 285 351 262 4
-11 33 -117 64 -235z m-245 189 c0 -1 -71 -61 -157 -132 -87 -70 -210 -171
-273 -224 -63 -53 -164 -136 -225 -185 -60 -49 -131 -106 -156 -128 l-47 -38
-288 30 c-159 17 -379 40 -489 51 -233 23 -345 37 -351 42 -2 3 51 12 119 21
122 17 548 79 792 116 107 16 148 27 230 64 120 53 541 246 715 327 142 66
130 61 130 56z m-9339 -72 c79 -36 162 -74 184 -84 92 -42 407 -186 500 -227
107 -48 61 -40 800 -147 294 -43 348 -53 315 -59 -50 -9 -180 -24 -465 -52
-137 -13 -337 -34 -443 -45 -159 -17 -195 -19 -211 -8 -10 7 -65 52 -122 100
-125 103 -362 299 -563 463 -80 65 -146 120 -146 122 0 6 11 2 151 -63z m4543
-21 c3 -42 6 -233 6 -425 l0 -349 -107 83 c-115 88 -197 152 -403 313 -70 55
-212 165 -314 244 -103 80 -182 147 -176 151 6 3 31 7 58 8 111 5 759 43 782
46 14 1 52 4 86 5 l61 1 7 -77z m699 43 c224 -13 410 -26 413 -28 4 -4 -991
-757 -1032 -781 -12 -7 -14 63 -14 419 l0 427 113 -7 c61 -4 296 -18 520 -30z
m-1716 -234 c51 -103 257 -520 459 -927 491 -993 524 -1059 521 -1062 -2 -1
-113 76 -248 172 -134 95 -281 200 -327 232 -45 32 -124 88 -175 124 -50 36
-256 182 -457 324 -201 142 -392 277 -425 301 -33 24 -73 53 -90 64 -70 49
-516 365 -579 410 -65 47 -67 50 -45 59 13 5 152 60 309 122 157 61 328 129
380 149 103 40 373 146 485 191 39 15 77 28 85 28 10 1 48 -66 107 -187z
m2476 96 c128 -50 327 -128 442 -173 116 -46 287 -113 380 -150 94 -37 181
-71 194 -76 23 -9 23 -10 -20 -41 -47 -34 -265 -188 -724 -513 -154 -108 -302
-214 -330 -235 -27 -20 -201 -143 -385 -273 -184 -130 -459 -324 -610 -431
-151 -107 -276 -194 -277 -192 -2 2 69 148 157 326 89 177 159 329 156 337 -3
8 -2 11 4 8 8 -5 217 411 643 1277 62 126 118 228 125 228 7 0 117 -41 245
-92z m-2249 -138 c109 -85 222 -173 250 -194 218 -166 538 -421 542 -430 2 -6
5 -296 6 -644 l3 -634 -177 359 c-307 622 -668 1351 -760 1536 -49 98 -83 175
-75 170 7 -4 102 -78 211 -163z m1566 -496 c-171 -346 -397 -803 -502 -1016
-106 -214 -195 -388 -199 -388 -4 0 -7 224 -8 497 -2 369 -5 501 -14 512 -9
12 -9 13 0 8 10 -6 13 25 15 129 l3 138 430 322 c237 177 464 348 505 381 41
32 76 56 78 52 2 -4 -137 -290 -308 -635z m-3185 -47 c24 -78 83 -263 130
-412 47 -148 122 -385 166 -525 44 -140 126 -396 180 -568 55 -173 99 -315 97
-317 -2 -1 -205 -12 -453 -24 -247 -12 -517 -26 -600 -31 -82 -5 -289 -16
-460 -25 -170 -8 -345 -17 -388 -21 l-78 -5 21 41 c30 59 182 312 314 522 61
98 123 197 137 220 101 165 414 654 779 1218 l85 132 13 -32 c7 -17 32 -95 57
-173z m335 -29 c91 -64 197 -139 235 -166 138 -97 634 -448 830 -587 320 -226
362 -255 369 -250 3 3 4 2 2 -1 -4 -5 149 -117 331 -244 11 -8 88 -62 169
-120 81 -58 152 -108 157 -111 4 -3 1 -21 -7 -40 -9 -19 -36 -88 -62 -154 -52
-137 -91 -238 -105 -277 -6 -15 -48 -53 -102 -92 -51 -36 -135 -97 -187 -136
-134 -99 -292 -214 -307 -223 -8 -5 -102 46 -260 139 -137 81 -273 161 -303
179 -30 17 -66 38 -80 46 -14 9 -102 62 -196 118 l-172 102 -35 112 c-19 62
-53 171 -76 242 -22 72 -92 297 -156 500 -64 204 -139 442 -166 530 -28 88
-54 171 -59 185 -5 14 -39 122 -76 240 -37 118 -69 221 -72 229 -6 15 52 -24
328 -221z m4566 194 c-8 -21 -37 -112 -66 -202 -28 -91 -80 -255 -115 -365
-74 -231 -443 -1402 -451 -1427 -4 -15 -189 -129 -559 -346 -60 -35 -144 -85
-185 -110 -239 -145 -259 -155 -279 -141 -37 27 -218 160 -396 292 -179 132
-180 133 -202 192 -12 33 -40 110 -63 170 -22 61 -53 143 -68 184 l-26 73 26
22 c14 11 99 73 188 136 195 137 193 136 591 417 653 463 704 498 1254 889
116 82 221 157 235 167 14 9 47 33 75 52 27 19 51 35 52 35 1 0 -4 -17 -11
-38z m184 -122 c51 -80 177 -275 280 -435 102 -159 253 -396 335 -525 81 -129
162 -257 180 -285 174 -270 445 -727 445 -749 0 -2 -8 -2 -17 0 -10 2 -155 13
-323 24 -168 12 -397 27 -510 35 -183 13 -503 35 -725 50 -44 3 -141 10 -215
15 -74 6 -147 10 -162 10 -19 0 -28 5 -28 16 0 14 134 440 511 1629 33 105 67
213 75 240 28 94 46 137 54 128 4 -4 49 -73 100 -153z m-5284 73 c-8 -16 -58
-93 -110 -173 -85 -131 -172 -266 -261 -405 -18 -27 -61 -95 -97 -150 -36 -55
-67 -105 -69 -110 -2 -6 -29 -48 -60 -95 -31 -47 -118 -184 -194 -305 -75
-121 -147 -236 -160 -255 -54 -84 -250 -413 -282 -474 -6 -10 -13 -15 -15 -10
-3 5 -30 86 -61 179 -30 94 -87 268 -126 387 -39 119 -71 223 -71 231 0 8 39
46 88 84 96 77 712 559 806 632 33 25 97 75 142 111 45 36 105 83 134 105 29
22 118 93 198 157 81 64 148 117 150 117 1 1 -4 -11 -12 -26z m5699 -291 c181
-143 380 -298 564 -441 95 -75 211 -165 256 -201 46 -36 131 -102 189 -148 58
-46 106 -90 106 -98 0 -8 -32 -113 -71 -232 -39 -119 -96 -293 -126 -387 -31
-93 -58 -174 -60 -178 -3 -4 -41 54 -85 130 -108 184 -396 650 -553 893 -23
36 -75 117 -115 180 -40 63 -88 138 -105 165 -18 28 -106 165 -197 305 -90
140 -175 272 -188 294 -24 41 -48 58 385 -282z m-2996 -1550 c77 -205 101
-273 101 -289 0 -17 -141 -283 -150 -283 -5 0 -146 255 -152 275 -3 11 144
415 152 415 3 0 25 -53 49 -118z m2031 -161 c63 -6 156 -12 205 -15 163 -10
528 -36 650 -46 66 -5 266 -19 445 -30 179 -11 341 -23 360 -27 43 -7 72 3
-305 -103 -159 -45 -326 -92 -370 -105 -44 -13 -174 -51 -290 -84 -115 -33
-354 -101 -530 -151 -176 -51 -363 -103 -415 -117 -52 -13 -102 -29 -111 -34
-34 -18 -41 -10 -21 24 11 17 59 109 107 202 48 94 93 175 99 181 6 7 94 33
196 58 102 26 194 51 205 55 19 8 19 9 -5 19 -83 34 -372 181 -355 182 11 0
72 -4 135 -9z m-4180 -77 c-85 -42 -171 -82 -190 -90 -27 -12 -31 -17 -20 -23
8 -5 103 -30 211 -57 l196 -49 106 -207 c59 -114 107 -208 107 -211 0 -4
-1691 477 -2045 581 l-100 30 55 5 c30 4 159 11 285 17 127 6 352 17 500 26
299 17 947 51 1010 53 36 1 23 -8 -115 -75z m305 45 c23 -14 47 -43 71 -88 20
-36 47 -82 59 -101 13 -19 34 -55 48 -80 30 -54 81 -143 131 -228 31 -52 41
-61 59 -57 12 3 111 23 221 45 l198 39 54 -31 c46 -25 75 -48 62 -48 -4 0
-271 -50 -493 -92 -88 -16 -177 -31 -198 -32 l-39 -1 -119 225 -118 225 -63
17 c-35 10 -99 27 -143 39 -44 11 -84 24 -88 28 -4 4 14 17 40 29 26 11 100
45 163 76 63 31 116 56 117 56 1 0 18 -9 38 -21z m3815 -67 c167 -81 170 -70
-32 -122 l-127 -33 -79 -151 c-44 -83 -97 -184 -117 -224 -21 -41 -44 -76 -51
-79 -8 -3 -101 11 -206 31 -212 41 -510 96 -516 96 -13 0 16 23 62 49 l54 30
219 -44 c120 -24 221 -40 225 -37 7 8 116 193 181 307 116 206 129 226 165
244 43 22 30 26 222 -67z m-3505 -119 c55 -33 167 -99 249 -147 81 -49 144
-91 140 -96 -5 -4 -73 -19 -151 -34 -78 -14 -148 -29 -155 -31 -9 -4 -39 38
-88 122 -40 71 -93 161 -117 200 -24 40 -43 75 -43 79 0 3 15 -3 33 -14 17
-10 77 -46 132 -79z m3018 -112 c-78 -134 -122 -200 -131 -196 -7 2 -77 17
-155 31 -78 15 -146 30 -150 34 -5 4 58 47 140 95 81 48 162 96 178 107 55 35
230 135 233 133 1 -1 -50 -93 -115 -204z m-1649 -1 c42 -74 76 -142 76 -151 0
-9 -70 -132 -156 -275 -87 -142 -171 -284 -189 -314 -18 -30 -71 -119 -119
-197 -47 -78 -86 -145 -86 -148 0 -4 -9 -19 -21 -33 -11 -15 -50 -76 -86 -137
-36 -60 -93 -156 -126 -212 -34 -57 -64 -103 -68 -103 -4 0 -30 39 -58 88 -29
48 -99 164 -156 257 -57 94 -117 193 -133 220 -16 28 -99 167 -186 310 -86
143 -153 261 -149 262 9 3 535 103 715 136 95 17 117 25 113 37 -3 10 12 26
43 47 26 17 108 77 182 133 247 184 314 230 321 223 4 -5 42 -69 83 -143z
m486 31 c63 -46 175 -129 247 -183 83 -61 131 -103 127 -111 -3 -10 25 -19
113 -34 65 -12 250 -46 412 -77 162 -31 298 -56 302 -56 5 0 9 -4 9 -9 0 -5
-76 -134 -169 -288 -134 -221 -467 -772 -509 -843 -7 -11 -28 17 -83 109 -152
254 -207 345 -305 508 -401 663 -474 787 -474 800 0 9 15 44 34 77 18 34 48
88 66 121 18 33 40 70 48 83 18 27 8 32 182 -97z m-3525 -62 c231 -66 503
-144 605 -173 102 -30 349 -100 548 -156 200 -57 365 -108 367 -114 2 -6 22
-76 46 -156 23 -80 63 -217 90 -305 26 -88 56 -191 67 -230 18 -62 129 -440
199 -675 14 -47 40 -137 58 -200 19 -63 51 -176 73 -250 22 -74 40 -136 39
-137 -1 -1 -49 44 -107 99 -188 181 -552 530 -680 653 -69 65 -184 176 -255
245 -72 69 -231 222 -355 340 -124 118 -285 274 -360 345 -292 281 -400 385
-515 495 -196 187 -385 372 -385 375 0 4 22 -2 565 -156z m6756 38 c-128 -125
-392 -380 -421 -407 -9 -8 -73 -69 -141 -135 -69 -66 -219 -210 -335 -320
-217 -208 -378 -363 -597 -575 -71 -69 -135 -129 -141 -135 -7 -5 -61 -57
-122 -115 -697 -671 -768 -739 -772 -736 -1 2 17 70 42 152 24 82 76 259 116
394 106 360 189 643 274 930 41 140 90 305 107 365 l32 111 186 53 c102 30
215 62 251 72 36 10 178 50 315 89 138 40 295 85 350 100 137 38 518 147 582
166 83 25 387 112 394 113 4 1 -50 -54 -120 -122z m-7341 -132 c62 -121 141
-274 175 -340 34 -66 99 -192 145 -280 46 -88 111 -214 145 -280 34 -66 117
-227 184 -357 l122 -237 -391 -783 c-215 -431 -395 -787 -399 -791 -5 -5 -9
38 -10 95 -2 128 -29 999 -36 1163 -3 66 -9 273 -15 460 -5 187 -12 412 -15
500 -3 88 -10 306 -15 485 -5 179 -12 388 -16 465 -4 89 -3 136 4 130 5 -5 60
-109 122 -230z m7601 -57 c-6 -155 -18 -510 -26 -788 -18 -597 -43 -1366 -50
-1535 -2 -66 -8 -243 -11 -392 -4 -150 -10 -273 -13 -273 -8 0 -781 1546 -781
1561 0 10 128 264 301 596 34 65 94 181 134 258 40 77 102 196 137 265 36 69
120 232 188 363 67 131 124 236 127 234 2 -3 0 -133 -6 -289z m-7571 212 c8
-8 67 -65 130 -125 63 -61 223 -214 355 -340 131 -127 288 -277 349 -335 60
-58 125 -121 145 -140 20 -19 138 -132 261 -250 124 -118 283 -271 355 -340
71 -69 184 -177 250 -240 66 -63 178 -171 250 -240 239 -230 369 -356 468
-450 53 -51 97 -97 97 -101 0 -5 -69 -68 -152 -140 -212 -184 -583 -508 -696
-607 -52 -46 -98 -80 -103 -75 -4 4 -33 58 -64 118 -31 61 -94 182 -140 270
-45 88 -151 293 -235 455 -84 162 -183 354 -220 425 -37 72 -109 211 -160 310
-51 99 -109 212 -130 250 -21 39 -88 169 -150 290 -62 121 -174 339 -250 485
-75 146 -179 346 -230 445 -51 99 -120 232 -153 295 -63 122 -62 123 23 40z
m7424 -77 c-110 -211 -189 -364 -289 -558 -48 -93 -118 -228 -155 -300 -37
-71 -102 -197 -145 -280 -160 -309 -239 -463 -300 -580 -34 -66 -109 -210
-165 -320 -57 -110 -153 -297 -215 -415 -61 -118 -131 -253 -155 -300 -23 -47
-70 -137 -103 -200 -33 -63 -87 -168 -119 -232 -33 -65 -63 -120 -68 -123 -5
-3 -82 59 -172 138 -90 78 -253 221 -363 317 -389 339 -415 362 -415 369 0 7
348 343 920 890 112 108 220 212 240 231 32 31 428 411 522 501 21 20 35 39
30 43 -4 4 -2 6 4 4 6 -2 213 191 459 427 451 433 558 534 563 535 2 0 -32
-66 -74 -147z m-7619 -603 c8 -322 17 -632 20 -690 16 -341 61 -1900 55 -1900
-3 0 -27 33 -55 72 -53 76 -222 315 -370 524 -49 69 -115 163 -146 208 l-56
81 8 65 c12 96 73 602 114 950 l37 305 181 552 182 553 7 -68 c4 -37 14 -330
23 -652z m8117 -120 c71 -215 83 -263 99 -390 33 -257 79 -639 110 -900 16
-140 31 -264 33 -275 4 -20 0 -28 -179 -280 -49 -70 -97 -137 -105 -149 -8
-12 -51 -72 -95 -135 -44 -62 -109 -154 -145 -205 -36 -51 -75 -105 -87 -122
l-23 -29 5 35 c2 19 6 154 10 300 3 146 8 308 10 360 3 52 7 185 10 295 7 263
14 455 21 589 4 81 3 107 -6 101 -8 -5 -9 -2 -1 11 9 17 29 549 46 1264 3 124
8 259 12 300 l6 75 99 -300 c55 -165 136 -410 180 -545z m-8387 304 c-90 -274
-168 -505 -173 -513 -4 -7 -53 -26 -107 -41 -221 -61 -346 -92 -350 -88 -3 2
26 48 63 101 37 53 113 163 169 244 505 730 556 803 560 800 1 -2 -71 -228
-162 -503z m8310 337 c50 -73 113 -164 141 -204 42 -61 183 -265 336 -487 21
-30 74 -107 118 -170 44 -63 76 -116 72 -118 -6 -2 -216 51 -367 93 -5 1 -25
6 -42 10 -18 4 -37 12 -41 19 -8 9 -318 937 -336 1006 l-7 25 18 -22 c10 -12
59 -80 108 -152z m-4050 -228 c78 -131 203 -338 563 -934 l203 -336 14 -104
c42 -313 98 -779 95 -783 -3 -2 -99 -34 -215 -70 -115 -36 -331 -103 -478
-150 l-268 -85 -72 24 c-40 13 -254 81 -477 150 -223 70 -408 129 -411 131 -3
2 -2 29 2 61 5 32 24 182 44 333 19 151 41 324 49 383 l14 109 173 286 c95
158 251 415 345 572 95 157 194 321 220 365 69 118 106 175 115 175 4 0 42
-57 84 -127z m-1480 -503 c54 -91 184 -306 288 -479 l190 -315 -11 -90 c-33
-268 -73 -575 -78 -601 -7 -34 3 -64 -104 300 -34 116 -90 307 -125 425 -35
118 -91 307 -124 420 -33 113 -81 274 -106 358 -25 85 -45 157 -45 160 0 12
19 -17 115 -178z m2790 -237 c-65 -219 -143 -486 -175 -593 -57 -192 -171
-578 -193 -654 l-11 -39 -7 29 c-4 16 -26 178 -49 361 l-42 332 77 128 c42 70
99 164 126 208 28 44 54 89 60 100 5 11 52 90 104 175 53 85 123 201 157 257
34 57 63 101 65 99 3 -2 -48 -183 -112 -403z m-5780 -165 c-5 -22 -16 -111
-95 -783 -17 -143 -32 -269 -35 -280 -3 -16 -44 -38 -167 -92 -238 -105 -242
-107 -235 -91 3 7 35 85 72 173 37 88 94 225 127 305 33 80 68 163 78 185 15
34 72 169 222 533 31 73 43 91 33 50z m8875 -223 c51 -121 107 -256 125 -300
18 -44 92 -222 165 -395 72 -173 134 -321 137 -328 7 -16 3 -14 -235 91 -123
54 -164 76 -167 92 -3 11 -18 137 -35 280 -17 143 -44 372 -60 509 -30 251
-33 283 -26 275 2 -2 46 -103 96 -224z m-1594 -1055 c-19 -780 -34 -1476 -38
-1680 -1 -80 -5 -163 -8 -185 l-5 -40 -90 117 c-49 64 -139 180 -200 259 -60
78 -137 177 -170 219 -33 42 -86 110 -117 151 -32 41 -94 121 -138 178 -44 57
-80 109 -80 115 0 12 113 233 400 786 192 370 358 690 413 798 l42 83 3 -68
c2 -37 -4 -367 -12 -733z m-5852 495 c3 -154 8 -361 11 -460 3 -99 12 -522 20
-940 8 -418 17 -813 21 -877 3 -65 2 -118 -3 -117 -4 0 -60 68 -123 151 -63
82 -168 218 -233 301 -64 84 -133 172 -152 197 -19 25 -64 83 -100 130 -36 47
-83 107 -103 134 -38 49 -44 58 -107 134 -19 24 -35 45 -35 47 0 5 766 1543
781 1568 6 11 12 17 13 15 2 -1 6 -129 10 -283z m270 -120 c66 -126 176 -340
246 -475 388 -748 390 -752 390 -766 0 -10 -70 -104 -240 -322 -198 -255 -376
-484 -455 -587 l-90 -118 -6 64 c-4 35 -9 233 -13 439 -4 206 -13 661 -21
1010 -8 349 -17 754 -20 900 l-6 265 48 -90 c27 -49 102 -193 167 -320z m6062
-385 c212 -425 384 -781 381 -789 -2 -9 -91 -128 -198 -266 -107 -137 -291
-374 -408 -525 -117 -151 -219 -281 -226 -288 -9 -10 -11 6 -8 80 1 51 10 446
18 878 8 432 17 832 20 890 2 58 7 264 11 458 4 194 11 349 16 344 4 -4 182
-356 394 -782z m1050 -376 c-42 -748 -51 -872 -59 -881 -7 -6 -527 448 -527
460 0 14 8 26 320 468 129 183 246 350 260 371 13 20 26 36 27 34 2 -2 -8
-205 -21 -452z m-8691 196 c87 -124 188 -267 224 -319 36 -51 79 -112 95 -135
15 -22 48 -69 72 -103 l44 -62 -137 -119 c-406 -353 -396 -345 -403 -326 -4
11 -10 71 -13 134 -11 204 -57 992 -63 1090 -6 85 -5 93 9 80 8 -8 86 -116
172 -240z m3438 116 c207 -63 792 -248 800 -253 4 -2 7 -121 7 -264 l0 -259
-74 0 -74 0 -193 200 -194 201 -107 -71 c-58 -38 -110 -70 -115 -70 -8 0 -115
343 -139 443 -3 15 -10 27 -15 27 -5 0 -6 6 -3 13 3 8 0 26 -5 40 -6 15 -8 27
-5 27 3 0 56 -15 117 -34z m1767 7 c-7 -25 -95 -326 -137 -470 -9 -29 -19 -53
-24 -53 -4 0 -56 32 -116 70 l-108 70 -195 -200 -195 -201 -73 1 -72 0 2 262
3 263 245 77 c135 43 328 103 430 135 102 31 186 59 188 63 1 3 15 7 31 8 28
2 29 1 21 -25z m-1922 -85 c56 -188 133 -443 143 -476 6 -19 20 -37 32 -41
207 -75 526 -195 524 -198 -5 -4 -1286 -354 -1479 -404 l-38 -10 68 -57 c37
-31 183 -157 325 -279 142 -123 264 -223 270 -223 7 0 41 16 76 35 l64 34 36
-31 c20 -17 118 -112 219 -211 l182 -180 0 -507 0 -506 -77 -34 c-43 -18 -100
-43 -128 -55 -27 -13 -120 -53 -205 -90 -240 -104 -313 -136 -344 -150 -34
-15 -33 -16 -196 71 -63 33 -182 96 -265 139 -165 86 -298 156 -479 252 -65
34 -127 65 -137 68 -11 4 -19 10 -19 14 0 8 -12 5 667 172 299 73 540 136 535
140 -4 3 -79 37 -167 74 -88 37 -178 76 -200 85 -22 10 -227 98 -455 195 -737
316 -785 336 -792 343 -4 4 12 30 35 58 42 51 366 469 504 651 40 52 87 113
105 135 38 47 105 133 154 200 20 26 97 100 172 165 75 65 151 130 167 145 94
86 661 577 666 578 4 0 20 -46 37 -102z m2071 45 c36 -32 107 -94 156 -138 50
-44 189 -165 310 -270 120 -104 242 -210 270 -235 28 -25 77 -67 109 -94 31
-26 91 -93 131 -147 41 -55 114 -150 162 -212 49 -62 102 -130 118 -151 17
-22 48 -62 69 -90 22 -28 65 -85 97 -126 32 -41 97 -124 144 -185 158 -204
169 -219 171 -232 1 -7 -1 -11 -6 -8 -5 3 -43 -10 -87 -29 -43 -18 -139 -59
-213 -91 -74 -31 -169 -72 -210 -90 -41 -18 -183 -79 -315 -135 -132 -56 -258
-110 -280 -120 -22 -10 -143 -62 -270 -115 -126 -54 -233 -101 -237 -104 -4
-4 180 -53 410 -109 229 -56 449 -111 487 -121 39 -11 122 -31 185 -46 63 -15
116 -28 118 -30 4 -4 -86 -53 -328 -180 -113 -59 -241 -127 -285 -150 -217
-115 -384 -201 -416 -216 l-37 -17 -113 50 c-63 27 -174 76 -247 109 -73 32
-134 59 -137 59 -3 0 -38 15 -77 33 -40 18 -103 46 -140 62 l-68 28 0 508 0
507 157 154 c86 84 173 170 192 192 20 21 48 47 63 57 l26 19 62 -35 c34 -19
66 -35 71 -35 13 0 79 54 392 323 188 161 264 233 255 238 -8 4 -65 21 -128
38 -216 57 -1363 371 -1367 374 -4 4 512 197 526 197 15 0 25 23 65 160 127
425 138 460 144 460 3 0 35 -26 71 -57z m-1522 -550 c66 -71 120 -129 118
-131 -2 -3 -382 136 -404 148 -10 5 9 22 65 58 44 29 84 52 89 52 6 0 65 -57
132 -127z m1088 76 c55 -37 74 -54 64 -59 -8 -5 -66 -27 -129 -50 -63 -23
-150 -55 -194 -71 -43 -17 -80 -29 -81 -27 -6 6 238 258 250 258 7 0 47 -23
90 -51z m60 -465 c297 -80 601 -163 675 -184 74 -20 170 -46 213 -56 42 -10
76 -21 75 -25 -2 -4 -40 -38 -84 -75 -204 -172 -266 -224 -361 -307 l-102 -88
-68 37 c-37 20 -94 52 -126 70 -32 19 -60 34 -62 34 -2 0 -48 24 -102 53 -54
30 -129 71 -168 92 -38 21 -96 53 -128 71 -32 19 -60 34 -62 34 -2 0 -94 50
-204 110 -110 61 -205 110 -211 110 -7 0 -55 -24 -109 -54 -53 -29 -132 -73
-176 -96 -44 -24 -102 -55 -130 -70 -27 -15 -133 -73 -235 -128 -102 -55 -212
-114 -245 -132 -33 -18 -73 -41 -90 -50 -80 -46 -127 -70 -140 -70 -15 0 -545
444 -546 457 -1 7 35 18 296 89 50 13 338 91 640 173 l550 150 180 0 179 1
541 -146z m-469 -316 c134 -72 243 -132 241 -134 -1 -1 -42 -36 -91 -78 l-90
-76 -305 0 -306 0 -92 77 c-51 42 -91 78 -89 80 4 4 480 262 485 263 2 0 113
-59 247 -132z m-677 -258 l105 -90 326 0 326 0 105 90 c57 49 111 89 119 87
20 -3 380 -200 380 -208 0 -3 -98 -100 -218 -216 l-218 -211 3 -497 c2 -273 1
-500 -2 -505 -5 -8 -48 10 -215 87 -30 14 -65 26 -77 27 -11 0 -20 3 -18 6 2
3 -11 12 -28 20 -18 7 -60 26 -93 41 l-61 27 -169 -73 c-93 -40 -204 -89 -248
-109 -43 -20 -79 -36 -80 -36 0 0 -1 226 0 503 l1 502 -221 218 c-122 120
-216 221 -211 223 6 3 91 49 190 104 99 55 185 99 190 99 6 0 57 -40 114 -89z
m-2063 -566 c176 -76 353 -151 394 -169 515 -219 720 -309 720 -314 0 -3 -114
-34 -253 -68 -138 -34 -384 -94 -545 -134 -233 -57 -296 -69 -302 -59 -8 12
-45 109 -255 655 -43 110 -80 206 -82 213 -3 6 -3 12 0 12 3 0 148 -61 323
-136z m5311 124 c-2 -7 -23 -60 -45 -118 -22 -58 -90 -233 -151 -390 -144
-373 -142 -370 -154 -370 -5 0 -193 45 -416 100 -223 55 -466 115 -538 133
-73 17 -133 35 -133 38 0 3 267 120 593 259 325 140 646 277 712 306 130 57
140 60 132 42z m-2353 -1362 c251 -214 456 -392 456 -395 -1 -3 -24 -23 -53
-43 -29 -20 -77 -55 -108 -77 l-56 -40 -67 51 -68 50 -86 -25 c-48 -14 -175
-51 -282 -82 l-195 -57 -55 15 c-153 43 -277 78 -393 112 l-127 38 -62 -48
c-34 -27 -67 -48 -73 -48 -6 0 -54 32 -107 71 -53 39 -99 68 -102 65 -3 -4 -6
0 -6 8 0 13 97 102 253 232 33 27 55 53 51 59 -4 7 -2 8 4 4 9 -5 178 125 212
164 3 3 47 41 99 85 51 44 139 119 195 167 55 48 104 87 108 85 4 -1 212 -177
462 -391z m-664 301 c-25 -24 -72 -66 -105 -92 -60 -48 -125 -104 -490 -416
-205 -175 -179 -159 -525 -321 -47 -22 -97 -46 -112 -53 -21 -10 -28 -10 -27
-2 0 7 30 102 67 211 l67 199 570 249 c313 136 574 253 579 258 6 6 12 10 16
10 3 0 -15 -20 -40 -43z m499 -27 c61 -27 113 -50 115 -50 3 0 33 -13 68 -29
35 -16 133 -59 218 -96 178 -77 441 -192 550 -240 l75 -33 67 -199 c37 -109
67 -204 67 -211 1 -10 -5 -10 -26 2 -33 18 -183 88 -336 157 -83 37 -126 64
-180 112 -165 146 -251 216 -260 210 -6 -3 -7 -1 -3 5 4 6 -15 27 -43 49 -47
36 -373 314 -416 354 -11 11 -17 19 -13 19 3 0 56 -22 117 -50z"/>
</g>
</svg>
